<svg width="230" height="230" viewBox="0 0 230 230" fill="none" xmlns="http://www.w3.org/2000/svg">
<path d="M165.801 100.625H222.324C223.007 100.625 223.675 100.82 224.252 101.187C224.828 101.553 225.287 102.076 225.577 102.695C225.867 103.313 225.974 104.001 225.887 104.678C225.799 105.356 225.521 105.994 225.084 106.519L196.823 140.444C196.485 140.848 196.063 141.174 195.586 141.397C195.109 141.62 194.589 141.736 194.063 141.736C193.536 141.736 193.016 141.62 192.539 141.397C192.062 141.174 191.64 140.848 191.303 140.444L163.041 106.519C162.604 105.994 162.326 105.356 162.238 104.678C162.151 104.001 162.259 103.313 162.548 102.695C162.838 102.076 163.298 101.553 163.874 101.187C164.45 100.82 165.119 100.625 165.801 100.625ZM7.67639 129.375H64.1989C64.8818 129.375 65.5504 129.18 66.1266 128.813C66.7027 128.447 67.1625 127.924 67.4521 127.305C67.7417 126.687 67.8491 125.999 67.7618 125.322C67.6744 124.644 67.3959 124.006 66.9589 123.481L38.6976 89.5563C38.3604 89.1519 37.9383 88.8265 37.4614 88.6032C36.9844 88.3799 36.4643 88.2642 35.9376 88.2642C35.411 88.2642 34.8908 88.3799 34.4139 88.6032C33.937 88.8265 33.5149 89.1519 33.1776 89.5563L4.91639 123.481C4.47936 124.006 4.20086 124.644 4.11351 125.322C4.02616 125.999 4.13357 126.687 4.42317 127.305C4.71277 127.924 5.17257 128.447 5.74872 128.813C6.32487 129.18 6.99353 129.375 7.67639 129.375Z" fill="#C7C7C7"/>
<path fill-rule="evenodd" clip-rule="evenodd" d="M115 43.125C92.6902 43.125 72.7377 53.2881 59.5559 69.2587C58.9672 70.0217 58.2312 70.6584 57.3916 71.1312C56.5519 71.604 55.6258 71.9031 54.6682 72.0108C53.7106 72.1184 52.7412 72.0324 51.8175 71.7579C50.8939 71.4834 50.0348 71.026 49.2915 70.4128C48.5482 69.7996 47.9357 69.0432 47.4906 68.1886C47.0454 67.334 46.7767 66.3986 46.7003 65.438C46.6239 64.4774 46.7415 63.5113 47.046 62.5971C47.3504 61.6829 47.8357 60.8392 48.4727 60.1162C58.998 47.3732 72.9618 37.9214 88.7035 32.885C104.445 27.8487 121.302 27.4397 137.27 31.7068C153.237 35.9738 167.643 44.7373 178.774 56.955C189.904 69.1726 197.292 84.3302 200.057 100.625H185.438C182.124 84.3904 173.303 69.7993 160.467 59.3212C147.631 48.8431 131.57 43.1216 115 43.125ZM44.5627 129.375C47.2841 142.666 53.7103 154.917 63.099 164.711C72.4877 174.505 84.4557 181.443 97.6203 184.723C110.785 188.003 124.609 187.492 137.496 183.248C150.382 179.005 161.805 171.202 170.445 160.741C171.033 159.978 171.769 159.342 172.609 158.869C173.449 158.396 174.375 158.097 175.332 157.989C176.29 157.882 177.259 157.968 178.183 158.242C179.107 158.517 179.966 158.974 180.709 159.587C181.452 160.2 182.065 160.957 182.51 161.811C182.955 162.666 183.224 163.601 183.3 164.562C183.377 165.523 183.259 166.489 182.955 167.403C182.65 168.317 182.165 169.161 181.528 169.884C171.003 182.627 157.039 192.079 141.297 197.115C125.555 202.151 108.698 202.56 92.7308 198.293C76.7634 194.026 62.3576 185.263 51.2268 173.045C40.096 160.827 32.7087 145.67 29.9434 129.375H44.5627Z" fill="#C7C7C7"/>
</svg>
