<svg width="336" height="336" viewBox="0 0 336 336" fill="none" xmlns="http://www.w3.org/2000/svg">
<g clip-path="url(#clip0_88_26)">
<path d="M252 168C252 190.278 243.15 211.644 227.397 227.397C211.644 243.15 190.278 252 168 252C145.722 252 124.356 243.15 108.603 227.397C92.85 211.644 84 190.278 84 168C84 145.722 92.85 124.356 108.603 108.603C124.356 92.85 145.722 84 168 84C190.278 84 211.644 92.85 227.397 108.603C243.15 124.356 252 145.722 252 168ZM168 0C170.785 0 173.455 1.10625 175.425 3.07538C177.394 5.04451 178.5 7.71523 178.5 10.5V52.5C178.5 55.2848 177.394 57.9555 175.425 59.9246C173.455 61.8938 170.785 63 168 63C165.215 63 162.545 61.8938 160.575 59.9246C158.606 57.9555 157.5 55.2848 157.5 52.5V10.5C157.5 7.71523 158.606 5.04451 160.575 3.07538C162.545 1.10625 165.215 0 168 0ZM168 273C170.785 273 173.455 274.106 175.425 276.075C177.394 278.045 178.5 280.715 178.5 283.5V325.5C178.5 328.285 177.394 330.955 175.425 332.925C173.455 334.894 170.785 336 168 336C165.215 336 162.545 334.894 160.575 332.925C158.606 330.955 157.5 328.285 157.5 325.5V283.5C157.5 280.715 158.606 278.045 160.575 276.075C162.545 274.106 165.215 273 168 273ZM336 168C336 170.785 334.894 173.455 332.925 175.425C330.955 177.394 328.285 178.5 325.5 178.5H283.5C280.715 178.5 278.045 177.394 276.075 175.425C274.106 173.455 273 170.785 273 168C273 165.215 274.106 162.545 276.075 160.575C278.045 158.606 280.715 157.5 283.5 157.5H325.5C328.285 157.5 330.955 158.606 332.925 160.575C334.894 162.545 336 165.215 336 168ZM63 168C63 170.785 61.8938 173.455 59.9246 175.425C57.9555 177.394 55.2848 178.5 52.5 178.5H10.5C7.71523 178.5 5.04451 177.394 3.07538 175.425C1.10625 173.455 0 170.785 0 168C0 165.215 1.10625 162.545 3.07538 160.575C5.04451 158.606 7.71523 157.5 10.5 157.5H52.5C55.2848 157.5 57.9555 158.606 59.9246 160.575C61.8938 162.545 63 165.215 63 168ZM286.797 49.203C288.765 51.172 289.871 53.8423 289.871 56.6265C289.871 59.4107 288.765 62.081 286.797 64.05L257.103 93.765C256.127 94.7399 254.968 95.5129 253.693 96.04C252.418 96.567 251.052 96.8378 249.672 96.8368C246.886 96.8349 244.214 95.7261 242.245 93.7545C241.271 92.7783 240.498 91.6196 239.971 90.3446C239.443 89.0696 239.173 87.7032 239.174 86.3236C239.176 83.5372 240.284 80.8658 242.256 78.897L271.95 49.203C273.919 47.2346 276.589 46.1287 279.374 46.1287C282.158 46.1287 284.828 47.2346 286.797 49.203ZM93.744 242.256C95.7125 244.225 96.8183 246.895 96.8183 249.679C96.8183 252.464 95.7125 255.134 93.744 257.103L64.05 286.797C62.0697 288.71 59.4174 289.768 56.6643 289.744C53.9112 289.72 51.2777 288.616 49.3309 286.669C47.3841 284.722 46.2798 282.089 46.2559 279.336C46.232 276.583 47.2903 273.93 49.203 271.95L78.897 242.256C80.866 240.288 83.5363 239.182 86.3205 239.182C89.1047 239.182 91.775 240.288 93.744 242.256ZM286.797 286.797C284.828 288.765 282.158 289.871 279.374 289.871C276.589 289.871 273.919 288.765 271.95 286.797L242.256 257.103C240.343 255.123 239.285 252.47 239.309 249.717C239.333 246.964 240.437 244.331 242.384 242.384C244.331 240.437 246.964 239.333 249.717 239.309C252.47 239.285 255.123 240.343 257.103 242.256L286.797 271.95C288.765 273.919 289.871 276.589 289.871 279.374C289.871 282.158 288.765 284.828 286.797 286.797ZM93.744 93.765C91.775 95.7334 89.1047 96.8393 86.3205 96.8393C83.5363 96.8393 80.866 95.7334 78.897 93.765L49.203 64.05C48.2001 63.0814 47.4002 61.9228 46.8499 60.6417C46.2996 59.3607 46.01 57.9829 45.9979 56.5887C45.9858 55.1945 46.2514 53.8119 46.7794 52.5215C47.3073 51.2311 48.087 50.0587 49.0729 49.0729C50.0587 48.087 51.2311 47.3073 52.5215 46.7794C53.8119 46.2514 55.1945 45.9858 56.5887 45.9979C57.9829 46.01 59.3607 46.2996 60.6417 46.8499C61.9228 47.4002 63.0814 48.2001 64.05 49.203L93.744 78.897C94.7218 79.8724 95.4976 81.031 96.027 82.3067C96.5563 83.5823 96.8288 84.9499 96.8288 86.331C96.8288 87.7121 96.5563 89.0797 96.027 90.3553C95.4976 91.631 94.7218 92.7896 93.744 93.765Z" fill="#FAD631"/>
</g>
<defs>
<clipPath id="clip0_88_26">
<rect width="336" height="336" fill="white"/>
</clipPath>
</defs>
</svg>
