<svg width="136" height="146" viewBox="0 0 136 146" fill="none" xmlns="http://www.w3.org/2000/svg">
<g clip-path="url(#clip0_94_176)">
<path d="M44.25 30.0502C44.9681 30.9259 45.4079 31.9963 45.5131 33.1239C45.6182 34.2514 45.3838 35.3847 44.84 36.378C40.5738 44.2054 38.347 52.981 38.3647 61.8955C38.3647 91.5504 62.54 115.563 92.335 115.563C96.229 115.558 99.9976 115.165 103.641 114.383C104.755 114.145 105.915 114.239 106.977 114.653C108.039 115.067 108.956 115.784 109.615 116.714C110.311 117.682 110.667 118.854 110.626 120.046C110.584 121.238 110.148 122.382 109.386 123.3C103.601 130.405 96.3042 136.129 88.0264 140.056C79.7487 143.983 70.699 146.014 61.537 146C27.5382 146 0 118.609 0 84.8612C0 59.4617 15.5907 37.676 37.7895 28.4425C38.8949 27.9727 40.1232 27.8755 41.2887 28.1655C42.4543 28.4556 43.4937 29.1172 44.25 30.0502Z" fill="#C7C7C7"/>
</g>
<path d="M109.098 30.4186C108.96 29.9999 108.694 29.6356 108.338 29.3774C107.982 29.1192 107.554 28.9802 107.115 28.9802C106.676 28.9802 106.248 29.1192 105.892 29.3774C105.536 29.6356 105.27 29.9999 105.132 30.4186L101.407 41.6521C99.7415 46.6599 95.8334 50.5849 90.8472 52.2573L79.6619 55.9986C79.2451 56.1372 78.8823 56.4043 78.6252 56.7618C78.3681 57.1193 78.2297 57.5491 78.2297 57.9901C78.2297 58.4311 78.3681 58.8609 78.6252 59.2184C78.8823 59.5759 79.2451 59.843 79.6619 59.9816L90.8472 63.7229C93.3078 64.5431 95.5437 65.9289 97.377 67.7701C99.2102 69.6112 100.59 71.8568 101.407 74.3281L105.132 85.5616C105.27 85.9803 105.536 86.3446 105.892 86.6028C106.248 86.861 106.676 87 107.115 87C107.554 87 107.982 86.861 108.338 86.6028C108.694 86.3446 108.96 85.9803 109.098 85.5616L112.823 74.3281C113.64 71.8568 115.02 69.6112 116.853 67.7701C118.686 65.9289 120.922 64.5431 123.383 63.7229L134.568 59.9816C134.985 59.843 135.347 59.5759 135.605 59.2184C135.862 58.8609 136 58.4311 136 57.9901C136 57.5491 135.862 57.1193 135.605 56.7618C135.347 56.4043 134.985 56.1372 134.568 55.9986L123.383 52.2573C120.922 51.4372 118.686 50.0513 116.853 48.2102C115.02 46.369 113.64 44.1234 112.823 41.6521L109.098 30.4186ZM79.556 0.9426C79.461 0.667332 79.283 0.42864 79.0466 0.259708C78.8103 0.0907763 78.5274 0 78.2373 0C77.9472 0 77.6643 0.0907763 77.428 0.259708C77.1916 0.42864 77.0136 0.667332 76.9186 0.9426L74.4351 8.42519C73.3281 11.7701 70.7195 14.39 67.389 15.5017L59.9385 17.9959C59.6645 18.0914 59.4268 18.2702 59.2586 18.5076C59.0904 18.7449 59 19.029 59 19.3204C59 19.6117 59.0904 19.8958 59.2586 20.1332C59.4268 20.3706 59.6645 20.5494 59.9385 20.6448L67.389 23.139C69.0288 23.6901 70.5189 24.6161 71.7416 25.8441C72.9644 27.0722 73.8864 28.5686 74.4351 30.2156L76.9186 37.6982C77.0136 37.9734 77.1916 38.2121 77.428 38.3811C77.6643 38.55 77.9472 38.6408 78.2373 38.6408C78.5274 38.6408 78.8103 38.55 79.0466 38.3811C79.283 38.2121 79.461 37.9734 79.556 37.6982L82.0395 30.2156C82.5882 28.5686 83.5102 27.0722 84.733 25.8441C85.9557 24.6161 87.4458 23.6901 89.0856 23.139L96.536 20.6448C96.8101 20.5494 97.0478 20.3706 97.216 20.1332C97.3842 19.8958 97.4746 19.6117 97.4746 19.3204C97.4746 19.029 97.3842 18.7449 97.216 18.5076C97.0478 18.2702 96.8101 18.0914 96.536 17.9959L89.0856 15.5017C85.7551 14.39 83.1465 11.7701 82.0395 8.42519L79.556 0.9426Z" fill="#C7C7C7"/>
<defs>
<clipPath id="clip0_94_176">
<rect width="118" height="118" fill="white" transform="translate(0 28)"/>
</clipPath>
</defs>
</svg>
