<svg width="364" height="241" viewBox="0 0 364 241" fill="none" xmlns="http://www.w3.org/2000/svg">
<path d="M59.1217 97.0636C63.8472 71.8371 76.0671 48.873 93.9969 31.5291C111.927 14.1851 134.626 3.37093 158.774 0.6677C182.922 -2.03553 207.254 3.51399 228.211 16.5048C249.168 29.4956 265.651 49.2465 275.251 72.8694C286.017 71.5559 296.923 72.5834 307.301 75.8891C317.678 79.1947 327.31 84.7089 335.606 92.0941C343.901 99.4793 350.686 108.58 355.546 118.839C360.405 129.099 363.236 140.3 363.866 151.758C364.495 163.216 362.91 174.69 359.207 185.476C355.504 196.264 349.761 206.136 342.331 214.491C334.9 222.845 325.937 229.505 315.991 234.064C306.045 238.622 295.326 240.983 284.489 241H68.3368C51.0192 241.021 34.3412 234.069 21.682 221.555C9.02272 209.04 1.32791 191.896 0.156457 173.597C-1.015 155.298 4.42433 137.212 15.3732 123.001C26.321 108.791 41.9597 99.5187 59.1217 97.0636Z" fill="#C7C7C7"/>
</svg>
