<svg width="252" height="239" viewBox="0 0 252 239" fill="none" xmlns="http://www.w3.org/2000/svg">
<path d="M40.9304 67.2599C44.2019 49.7792 52.6619 33.8664 65.0748 21.848C77.4877 9.82954 93.2024 2.33587 109.92 0.46268C126.638 -1.41051 143.483 2.435 157.992 11.4369C172.501 20.4389 183.912 34.1252 190.559 50.4946C198.012 49.5844 205.562 50.2964 212.747 52.587C219.931 54.8777 226.599 58.6987 232.342 63.8163C238.085 68.9338 242.783 75.2399 246.147 82.3492C249.511 89.4585 251.471 97.22 251.907 105.16C252.343 113.1 251.245 121.051 248.682 128.525C246.118 136 242.142 142.841 236.998 148.63C231.854 154.42 225.649 159.035 218.763 162.194C211.878 165.352 204.456 166.988 196.954 167H47.3101C35.321 167.015 23.7747 162.198 15.0106 153.525C6.2465 144.853 0.919336 132.974 0.108329 120.293C-0.702679 107.613 3.06299 95.0803 10.643 85.2329C18.2222 75.3862 29.049 68.9611 40.9304 67.2599Z" fill="#C7C7C7"/>
<path d="M70.0038 178.53C69.4701 177.773 68.7983 177.139 68.027 176.665C66.4691 175.711 64.6015 175.464 62.835 175.98C61.0685 176.495 59.5477 177.73 58.6071 179.414L47.3691 199.476C46.5083 201.151 46.2822 203.098 46.7384 204.908C47.1946 206.719 48.2977 208.251 49.8159 209.184C51.3341 210.118 53.1494 210.379 54.8807 209.913C56.6119 209.447 58.1243 208.29 59.1005 206.686L70.3384 186.624C70.8064 185.791 71.1178 184.872 71.2548 183.921C71.3919 182.969 71.352 182.003 71.1373 181.078C70.9226 180.153 70.5374 179.288 70.0038 178.53Z" fill="#36C8EB"/>
<path d="M149.765 177.447C149.238 176.652 148.569 175.986 147.796 175.487C146.234 174.484 144.346 174.223 142.547 174.761C140.748 175.3 139.186 176.593 138.203 178.358L126.464 199.388C125.562 201.144 125.299 203.186 125.729 205.086C126.159 206.986 127.25 208.595 128.771 209.576C130.293 210.557 132.128 210.833 133.89 210.347C135.652 209.86 137.205 208.649 138.222 206.968L149.962 185.937C150.45 185.064 150.782 184.101 150.938 183.103C151.093 182.105 151.07 181.092 150.869 180.121C150.668 179.151 150.293 178.242 149.765 177.447Z" fill="#36C8EB"/>
<path d="M101.969 206.322C101.417 205.535 100.72 204.872 99.9184 204.373C98.2985 203.367 96.3496 203.086 94.5003 203.591C92.651 204.095 91.0527 205.345 90.0571 207.064L78.1617 227.549C77.2494 229.261 76.998 231.262 77.4605 233.132C77.9229 235.002 79.0632 236.596 80.6418 237.579C82.2204 238.562 84.1146 238.857 85.9267 238.403C87.7387 237.949 89.3276 236.781 90.3598 235.144L102.255 214.658C102.75 213.808 103.083 212.867 103.233 211.889C103.384 210.912 103.35 209.917 103.133 208.962C102.916 208.006 102.52 207.109 101.969 206.322Z" fill="#36C8EB"/>
<path d="M180.53 205.976C180 205.236 179.337 204.621 178.579 204.166C177.048 203.25 175.224 203.04 173.507 203.583C171.79 204.125 170.322 205.376 169.425 207.06L158.708 227.124C158.223 227.959 157.896 228.886 157.747 229.849C157.597 230.813 157.628 231.793 157.838 232.731C158.048 233.669 158.432 234.546 158.968 235.308C159.503 236.071 160.18 236.704 160.956 237.17C161.732 237.636 162.592 237.925 163.484 238.02C164.377 238.114 165.283 238.013 166.15 237.721C167.017 237.429 167.825 236.954 168.528 236.322C169.23 235.691 169.812 234.916 170.238 234.046L180.955 213.982C181.401 213.148 181.694 212.233 181.816 211.289C181.938 210.345 181.887 209.389 181.667 208.478C181.446 207.566 181.06 206.716 180.53 205.976Z" fill="#36C8EB"/>
</svg>
