<svg width="268" height="253" viewBox="0 0 268 253" fill="none" xmlns="http://www.w3.org/2000/svg">
<path d="M43.5292 71.2874C47.0084 52.76 56.0055 35.8943 69.2065 23.1562C82.4076 10.4181 99.12 2.47575 116.899 0.490386C134.679 -1.49497 152.593 2.58081 168.023 12.1218C183.453 21.6628 195.589 36.1686 202.658 53.5182C210.584 52.5535 218.613 53.3082 226.254 55.736C233.895 58.1638 240.986 62.2136 247.094 67.6376C253.202 73.0616 258.198 79.7453 261.775 87.2803C265.353 94.8153 267.437 103.042 267.901 111.457C268.364 119.872 267.197 128.299 264.471 136.221C261.745 144.144 257.517 151.395 252.046 157.531C246.574 163.666 239.976 168.558 232.653 171.906C225.33 175.253 217.438 176.987 209.459 177H50.3139C37.5636 177.016 25.2842 171.91 15.9636 162.719C6.6431 153.527 0.97769 140.936 0.11519 127.497C-0.74731 114.057 3.25747 100.774 11.3187 90.3367C19.3792 79.9003 30.8934 73.0905 43.5292 71.2874Z" fill="#C7C7C7"/>
<path d="M55.5002 209.916C53.8993 208.278 53 206.055 53 203.738C53 201.42 53.8993 199.198 55.5002 197.559C57.101 195.921 59.2722 195 61.5361 195H205.956C208.22 195 210.391 195.921 211.992 197.559C213.592 199.198 214.492 201.42 214.492 203.738C214.492 206.055 213.592 208.278 211.992 209.916C210.391 211.555 208.22 212.475 205.956 212.475H61.5361C59.2722 212.475 57.101 211.555 55.5002 209.916Z" fill="#C7C7C7"/>
<path d="M55.5002 249.916C53.8993 248.278 53 246.055 53 243.738C53 241.42 53.8993 239.198 55.5002 237.559C57.101 235.921 59.2722 235 61.5361 235H205.956C208.22 235 210.391 235.921 211.992 237.559C213.592 239.198 214.492 241.42 214.492 243.738C214.492 246.055 213.592 248.278 211.992 249.916C210.391 251.555 208.22 252.475 205.956 252.475H61.5361C59.2722 252.475 57.101 251.555 55.5002 249.916Z" fill="#C7C7C7"/>
</svg>
