<svg width="27" height="16" viewBox="0 0 27 16" fill="none" xmlns="http://www.w3.org/2000/svg">
<path d="M0.5 6.25323V10.2532C0.5 10.7532 0.873333 11.7532 2.36667 11.7532H4.7L7.96667 15.2532C8.58889 15.4199 9.83333 15.4532 9.83333 14.2532V2.25323C9.83333 0.653227 8.58889 0.919894 7.96667 1.25323L4.7 4.75323H2.36667C0.873333 4.75323 0.5 5.75323 0.5 6.25323Z" fill="#C7C7C7"/>
<path d="M9.32227 2.02677C9.30075 1.82903 9.2524 1.7123 9.20996 1.64689C9.1611 1.57166 9.10132 1.53456 9.01855 1.51505C8.823 1.46897 8.52603 1.53626 8.26855 1.66056L4.91699 5.25333H2.36621C1.74157 5.25343 1.4184 5.45752 1.24609 5.64982C1.05922 5.8584 1 6.10905 1 6.25333V10.2533C1.00002 10.3976 1.05923 10.6483 1.24609 10.8569C1.39694 11.0252 1.66332 11.203 2.14648 11.2445L2.36621 11.2533H4.91699L8.22266 14.7963C8.46715 14.8441 8.7614 14.8581 8.98535 14.7885C9.10758 14.7505 9.18556 14.6961 9.23438 14.6332C9.28083 14.5733 9.333 14.4636 9.33301 14.2533V2.25334L9.32227 2.02677ZM10.333 14.2533L10.3281 14.3969C10.3056 14.7259 10.2049 15.0127 10.0244 15.2455C9.82048 15.5086 9.54771 15.6608 9.28125 15.7436C8.76772 15.903 8.19637 15.832 7.83691 15.7358L7.69922 15.6996L7.60156 15.5942L4.48242 12.2533H2.36621C1.49821 12.2532 0.888575 11.9573 0.500977 11.5248C0.127897 11.1084 1.6451e-05 10.609 0 10.2533V6.25333C0 5.89762 0.127873 5.39826 0.500977 4.98185C0.840119 4.60342 1.34926 4.32967 2.05273 4.26701L2.36621 4.25334H4.48242L7.60156 0.912515L7.65723 0.851968L7.73047 0.812906C8.08151 0.624847 8.68273 0.408185 9.24805 0.541421C9.5541 0.613563 9.84494 0.788706 10.0488 1.10294C10.245 1.40527 10.333 1.79416 10.333 2.25334V14.2533Z" fill="#C7C7C7"/>
<path d="M14.0774 4.09438C14.5779 3.86087 15.173 4.07733 15.4065 4.57778L15.6048 5.00356C15.8121 5.44789 15.9728 5.91278 16.0843 6.39028C16.3314 7.44961 16.3314 8.55165 16.0843 9.61098C15.9728 10.0885 15.8121 10.5534 15.6048 10.9977L15.4065 11.4235C15.173 11.9239 14.5779 12.1404 14.0774 11.9069C13.577 11.6733 13.3605 11.0782 13.594 10.5778L13.7932 10.152C13.942 9.83316 14.057 9.49953 14.137 9.15688C14.3144 8.39651 14.3144 7.60476 14.137 6.84438C14.057 6.50174 13.942 6.16811 13.7932 5.84927L13.594 5.42348C13.3605 4.92302 13.577 4.32793 14.0774 4.09438Z" fill="#C7C7C7"/>
<path d="M18.053 2.10615C18.547 1.85916 19.1479 2.05943 19.3948 2.55341L19.7493 3.26337C20.2216 4.20787 20.5503 5.21785 20.7239 6.25947C20.9161 7.41232 20.9161 8.58903 20.7239 9.74189C20.5503 10.7835 20.2216 11.7935 19.7493 12.738L19.3948 13.4479C19.1479 13.9419 18.547 14.1422 18.053 13.8952C17.5591 13.6482 17.3588 13.0474 17.6058 12.5534L17.9612 11.8435C18.3442 11.0775 18.6105 10.2585 18.7513 9.41376C18.9072 8.4784 18.9072 7.52295 18.7513 6.58759C18.6105 5.74289 18.3442 4.92388 17.9612 4.15791L17.6058 3.44794C17.3588 2.95397 17.5591 2.35314 18.053 2.10615Z" fill="#C7C7C7"/>
<path d="M24.5001 8.00031C24.5001 6.78316 24.3039 5.57395 23.919 4.41926L23.8555 4.2298C23.6678 3.66655 23.4404 3.1173 23.1749 2.58625L22.6055 1.44758C22.3585 0.9536 22.5588 0.35277 23.0528 0.105781C23.5468 -0.141208 24.1476 0.0590684 24.3946 0.553047L24.9639 1.69172C25.2719 2.30757 25.5353 2.94476 25.753 3.59797L25.8165 3.78645C26.2694 5.1451 26.5001 6.56816 26.5001 8.00031C26.5001 9.43246 26.2694 10.8555 25.8165 12.2142L25.753 12.4027C25.5353 13.0559 25.2719 13.6931 24.9639 14.3089L24.3946 15.4476C24.1476 15.9416 23.5468 16.1418 23.0528 15.8948C22.5588 15.6479 22.3585 15.047 22.6055 14.553L23.1749 13.4144C23.4404 12.8833 23.6678 12.3341 23.8555 11.7708L23.919 11.5814C24.3039 10.4267 24.5001 9.21746 24.5001 8.00031Z" fill="#C7C7C7"/>
</svg>
