<svg width="328" height="342" viewBox="0 0 328 342" fill="none" xmlns="http://www.w3.org/2000/svg">
<path fill-rule="evenodd" clip-rule="evenodd" d="M172.533 2.99794C170.626 1.07839 168.04 0 165.344 0C162.648 0 160.062 1.07839 158.156 2.99794C156.249 4.91749 155.178 7.52096 155.178 10.2356V51.1781C155.178 53.8927 156.249 56.4962 158.156 58.4157C160.062 60.3353 162.648 61.4137 165.344 61.4137C168.04 61.4137 170.626 60.3353 172.533 58.4157C174.439 56.4962 175.51 53.8927 175.51 51.1781V10.2356C175.51 7.52096 174.439 4.91749 172.533 2.99794ZM325.022 171.007C326.929 169.088 328 166.484 328 163.77C328 161.055 326.929 158.452 325.022 156.532C323.116 154.613 320.53 153.534 317.834 153.534H277.17C274.474 153.534 271.888 154.613 269.982 156.532C268.075 158.452 267.004 161.055 267.004 163.77C267.004 166.484 268.075 169.088 269.982 171.007C271.888 172.927 274.474 174.005 277.17 174.005H317.834C320.53 174.005 323.116 172.927 325.022 171.007ZM60.7068 171.007C62.6133 169.088 63.6844 166.484 63.6844 163.77C63.6844 161.055 62.6133 158.452 60.7068 156.532C58.8003 154.613 56.2146 153.534 53.5184 153.534H12.8545C10.1583 153.534 7.57252 154.613 5.66602 156.532C3.75953 158.452 2.68848 161.055 2.68848 163.77C2.68848 166.484 3.75953 169.088 5.66602 171.007C7.57252 172.927 10.1583 174.005 12.8545 174.005H53.5184C56.2146 174.005 58.8003 172.927 60.7068 171.007ZM283.339 55.2007C283.339 52.4865 282.268 49.8835 280.362 47.9641C278.456 46.0452 275.87 44.9672 273.175 44.9672C270.479 44.9672 267.894 46.0452 265.987 47.9641L237.238 76.9104C235.329 78.8297 234.256 81.4338 234.254 84.15C234.253 85.4949 234.515 86.8268 235.025 88.0697C235.536 89.3126 236.284 90.4421 237.228 91.3938C239.134 93.3158 241.721 94.3966 244.418 94.3985C245.754 94.3995 247.077 94.1355 248.311 93.6217C249.546 93.1079 250.668 92.3543 251.613 91.404L280.362 62.4372C282.268 60.5178 283.339 57.9148 283.339 55.2007ZM86.263 94.4009C88.9587 94.4009 91.544 93.3229 93.4504 91.404C94.3971 90.4532 95.1482 89.3237 95.6607 88.0802C96.1732 86.8367 96.437 85.5035 96.437 84.1572C96.437 82.8109 96.1732 81.4778 95.6607 80.2342C95.1482 78.9907 94.3971 77.8612 93.4504 76.9104L64.701 47.9641C63.7632 46.9865 62.6414 46.2067 61.4011 45.6703C60.1608 45.1338 58.8269 44.8515 57.477 44.8397C56.1272 44.8279 54.7886 45.0868 53.5392 45.6015C52.2898 46.1161 51.1548 46.8762 50.2003 47.8372C49.2458 48.7983 48.4909 49.9411 47.9797 51.199C47.4686 52.4569 47.2114 53.8047 47.2231 55.1638C47.2348 56.5229 47.5153 57.866 48.0481 59.1148C48.5809 60.3636 49.3553 61.493 50.3263 62.4372L79.0757 91.404C80.9821 93.3229 83.5674 94.4009 86.263 94.4009Z" fill="#FAD631"/>
<path d="M84.0163 163.77C84.0163 142.053 92.5848 121.225 107.837 105.868C123.089 90.512 143.775 81.8849 165.344 81.8849C186.914 81.8849 207.6 90.512 222.852 105.868C238.104 121.225 246.672 142.053 246.672 163.77C246.672 175.555 244.149 187.078 239.404 197.607H91.2846C86.5395 187.078 84.0163 175.555 84.0163 163.77Z" fill="#FAD631"/>
<path d="M2.50016 283.768C0.899337 282.13 0 279.907 0 277.59C0 275.273 0.899337 273.05 2.50016 271.411C4.10098 269.773 6.27216 268.852 8.53607 268.852H297.956C300.22 268.852 302.391 269.773 303.992 271.411C305.592 273.05 306.492 275.273 306.492 277.59C306.492 279.907 305.592 282.13 303.992 283.768C302.391 285.407 300.22 286.328 297.956 286.328H8.53607C6.27216 286.328 4.10098 285.407 2.50016 283.768Z" fill="#C7C7C7"/>
<path d="M24.0085 338.883C22.4076 337.245 21.5083 335.022 21.5083 332.705C21.5083 330.387 22.4076 328.165 24.0085 326.526C25.6093 324.888 27.7805 323.967 30.0444 323.967H319.464C321.728 323.967 323.899 324.888 325.5 326.526C327.101 328.165 328 330.387 328 332.705C328 335.022 327.101 337.245 325.5 338.883C323.899 340.522 321.728 341.442 319.464 341.442H30.0444C27.7805 341.442 25.6093 340.522 24.0085 338.883Z" fill="#C7C7C7"/>
<path d="M24.0085 228.654C22.4076 227.015 21.5083 224.793 21.5083 222.475C21.5083 220.158 22.4076 217.935 24.0085 216.297C25.6093 214.658 27.7805 213.737 30.0444 213.737H319.464C321.728 213.737 323.899 214.658 325.5 216.297C327.101 217.935 328 220.158 328 222.475C328 224.793 327.101 227.015 325.5 228.654C323.899 230.292 321.728 231.213 319.464 231.213H30.0444C27.7805 231.213 25.6093 230.292 24.0085 228.654Z" fill="#C7C7C7"/>
</svg>
