<svg width="258" height="255" viewBox="0 0 258 255" fill="none" xmlns="http://www.w3.org/2000/svg">
<path d="M41.905 68.8179C45.2543 50.9323 53.9157 34.6508 66.6242 22.3541C79.3327 10.0572 95.4215 2.38998 112.537 0.473398C129.653 -1.44318 146.9 2.49141 161.754 11.7019C176.608 20.9123 188.291 34.9157 195.096 51.6642C202.726 50.7329 210.456 51.4615 217.812 53.8052C225.168 56.1489 231.994 60.0584 237.874 65.2945C243.754 70.5306 248.563 76.9828 252.008 84.2567C255.452 91.5307 257.458 99.472 257.905 107.596C258.351 115.72 257.227 123.855 254.603 131.502C251.978 139.15 247.908 146.15 242.641 152.073C237.374 157.997 231.021 162.719 223.972 165.951C216.922 169.182 209.324 170.856 201.643 170.868H48.4365C36.1619 170.884 24.3407 165.955 15.368 157.082C6.39522 148.209 0.941219 136.054 0.110902 123.08C-0.719415 110.106 3.13592 97.2828 10.8964 87.2072C18.6561 77.1324 29.7407 70.5586 41.905 68.8179Z" fill="#C7C7C7"/>
<path d="M63.9678 186.945C63.364 185.024 62.0257 183.423 60.2463 182.492C59.3624 182.031 58.3965 181.75 57.4039 181.664C56.4113 181.578 55.4113 181.69 54.4613 181.992C53.5113 182.294 52.6298 182.781 51.8672 183.426C51.1046 184.07 50.4759 184.858 50.017 185.746L20.1301 243.443C19.2926 245.224 19.1751 247.26 19.8025 249.125C20.4298 250.989 21.753 252.537 23.4942 253.442C25.2354 254.347 27.2589 254.539 29.1397 253.978C31.0204 253.418 32.612 252.147 33.58 250.434L63.4669 192.737C64.3914 190.949 64.5715 188.865 63.9678 186.945Z" fill="#59D1EE"/>
<path d="M106.574 186.654C105.922 184.749 104.545 183.181 102.743 182.295C101.848 181.856 100.875 181.599 99.8806 181.538C98.8861 181.477 97.8893 181.613 96.9471 181.939C96.0049 182.264 95.1357 182.773 94.3894 183.436C93.643 184.099 93.0341 184.903 92.5975 185.802L64.1541 244.224C63.3611 246.025 63.2943 248.064 63.9678 249.912C64.6413 251.761 66.0026 253.275 67.7657 254.136C69.5288 254.998 71.5565 255.14 73.4228 254.532C75.289 253.925 76.8485 252.615 77.7736 250.879L106.217 192.457C107.097 190.646 107.225 188.559 106.574 186.654Z" fill="#59D1EE"/>
<path d="M149.639 186.328C149.002 184.418 147.635 182.84 145.84 181.941C144.948 181.496 143.977 181.232 142.983 181.163C141.989 181.095 140.991 181.224 140.047 181.543C139.102 181.862 138.229 182.364 137.478 183.022C136.727 183.679 136.112 184.479 135.669 185.374L106.801 243.588C105.995 245.383 105.914 247.421 106.574 249.274C107.234 251.128 108.584 252.651 110.341 253.526C112.098 254.4 114.124 254.557 115.995 253.963C117.865 253.369 119.434 252.071 120.372 250.342L149.24 192.128C150.133 190.323 150.276 188.237 149.639 186.328Z" fill="#59D1EE"/>
<path d="M191.141 186.21C190.572 184.278 189.264 182.653 187.502 181.689C186.627 181.212 185.666 180.913 184.675 180.809C183.684 180.705 182.682 180.798 181.727 181.083C180.772 181.368 179.881 181.839 179.107 182.469C178.333 183.099 177.69 183.875 177.214 184.755L146.272 241.892C145.402 243.657 145.247 245.691 145.84 247.567C146.433 249.443 147.727 251.014 149.451 251.951C151.176 252.888 153.195 253.118 155.086 252.592C156.977 252.065 158.592 250.825 159.591 249.13L190.534 191.992C191.491 190.221 191.709 188.141 191.141 186.21Z" fill="#59D1EE"/>
</svg>
