<svg width="17" height="16" viewBox="0 0 17 16" fill="none" xmlns="http://www.w3.org/2000/svg">
<path d="M0.5 5.75323V9.75323C0.5 10.2532 0.9 11.2532 2.5 11.2532H5L8.5 14.7532C9.16667 14.9199 10.5 14.9532 10.5 13.7532V1.75323C10.5 0.153227 9.16667 0.419894 8.5 0.753227L5 4.25323H2.5C0.9 4.25323 0.5 5.25323 0.5 5.75323Z" fill="#C7C7C7"/>
<path d="M9.98828 1.53167C9.96581 1.33768 9.9154 1.22438 9.87109 1.16057C9.81839 1.08476 9.74772 1.04017 9.64258 1.01702C9.40957 0.965755 9.07225 1.04083 8.79102 1.16838L5.20703 4.75335H2.5C1.81074 4.75335 1.4502 4.96517 1.26074 5.16252C1.05931 5.37248 1 5.61886 1 5.75335V9.75334C1.00002 9.88786 1.05929 10.1342 1.26074 10.3442C1.42654 10.5169 1.72335 10.7004 2.25684 10.7436L2.5 10.7533H5.20703L8.74609 14.2924C9.01779 14.3438 9.35208 14.3604 9.61035 14.2856C9.75205 14.2445 9.84204 14.1851 9.89648 14.1196C9.9461 14.0598 9.99999 13.9554 10 13.7533V1.75334L9.98828 1.53167ZM11 13.7533L10.9951 13.8998C10.9705 14.2351 10.8594 14.5253 10.666 14.7582C10.4498 15.0186 10.1645 15.1658 9.88965 15.2455C9.35582 15.4003 8.75795 15.3334 8.37891 15.2387L8.24414 15.2045L4.79297 11.7533H2.5C1.58935 11.7533 0.949611 11.4651 0.539062 11.0375C0.140695 10.6226 1.76492e-05 10.1188 0 9.75334V5.75335C0 5.38788 0.14067 4.88416 0.539062 4.46917C0.89826 4.09503 1.4329 3.82715 2.1709 3.76604L2.5 3.75334H4.79297L8.2041 0.342212L8.27637 0.306079C8.64992 0.119305 9.27608 -0.0883756 9.85742 0.0394777C10.1687 0.107964 10.4733 0.275853 10.6914 0.589282C10.9032 0.893894 11 1.28844 11 1.75334V13.7533Z" fill="#C7C7C7"/>
<path d="M14.0527 3.85859C14.5467 3.6116 15.1475 3.81188 15.3945 4.30585L15.6132 4.74335C15.8328 5.18253 16.0039 5.64494 16.123 6.12128C16.3907 7.19266 16.3907 8.31358 16.123 9.38496C16.0039 9.8613 15.8328 10.3237 15.6132 10.7629L15.3945 11.2004C15.1475 11.6944 14.5467 11.8946 14.0527 11.6477C13.5587 11.4007 13.3584 10.7998 13.6054 10.3059L13.8242 9.86835C13.9785 9.55975 14.0989 9.2353 14.1826 8.90058C14.3709 8.14735 14.3709 7.35889 14.1826 6.60566C14.0989 6.27094 13.9785 5.94649 13.8242 5.63789L13.6054 5.20039C13.3584 4.70641 13.5587 4.10558 14.0527 3.85859Z" fill="#C7C7C7"/>
</svg>
