<svg width="21" height="16" viewBox="0 0 21 16" fill="none" xmlns="http://www.w3.org/2000/svg">
<path d="M0.5 5.75298V9.75298C0.5 10.253 0.873333 11.253 2.36667 11.253H4.7L7.96667 14.753C8.58889 14.9196 9.83333 14.953 9.83333 13.753V1.75298C9.83333 0.152983 8.58889 0.41965 7.96667 0.752983L4.7 4.25298H2.36667C0.873333 4.25298 0.5 5.25298 0.5 5.75298Z" fill="#C7C7C7"/>
<path d="M9.32227 1.52653C9.30075 1.32879 9.2524 1.21205 9.20996 1.14665C9.1611 1.07142 9.10132 1.03432 9.01855 1.01481C8.823 0.968731 8.52603 1.03602 8.26855 1.16032L4.91699 4.75309H2.36621C1.74157 4.75319 1.4184 4.95727 1.24609 5.14958C1.05922 5.35816 1 5.60881 1 5.75309V9.75309C1.00002 9.89739 1.05923 10.1481 1.24609 10.3566C1.39694 10.5249 1.66332 10.7027 2.14648 10.7443L2.36621 10.7531H4.91699L8.22266 14.2961C8.46715 14.3438 8.7614 14.3578 8.98535 14.2882C9.10758 14.2502 9.18556 14.1959 9.23438 14.133C9.28083 14.0731 9.333 13.9634 9.33301 13.7531V1.75309L9.32227 1.52653ZM10.333 13.7531L10.3281 13.8966C10.3056 14.2257 10.2049 14.5125 10.0244 14.7453C9.82048 15.0083 9.54771 15.1605 9.28125 15.2433C8.76772 15.4027 8.19637 15.3318 7.83691 15.2355L7.69922 15.1994L7.60156 15.0939L4.48242 11.7531H2.36621C1.49821 11.753 0.888575 11.457 0.500977 11.0246C0.127897 10.6082 1.6451e-05 10.1088 0 9.75309V5.75309C0 5.39738 0.127873 4.89802 0.500977 4.48161C0.840119 4.10318 1.34926 3.82942 2.05273 3.76676L2.36621 3.75309H4.48242L7.60156 0.412271L7.65723 0.351724L7.73047 0.312661C8.08151 0.124602 8.68273 -0.0920589 9.24805 0.041177C9.5541 0.113318 9.84494 0.288462 10.0488 0.6027C10.245 0.905025 10.333 1.29392 10.333 1.75309V13.7531Z" fill="#C7C7C7"/>
<path d="M13.1438 3.8467C13.6443 3.61319 14.2394 3.82965 14.4729 4.3301L14.6712 4.75588C14.8785 5.20021 15.0392 5.6651 15.1507 6.1426C15.3978 7.20193 15.3978 8.30397 15.1507 9.3633C15.0392 9.8408 14.8785 10.3057 14.6712 10.75L14.4729 11.1758C14.2394 11.6763 13.6443 11.8927 13.1438 11.6592C12.6434 11.4257 12.4269 10.8306 12.6604 10.3301L12.8596 9.90432C13.0084 9.58548 13.1234 9.25184 13.2034 8.9092C13.3808 8.14883 13.3808 7.35708 13.2034 6.5967C13.1234 6.25406 13.0084 5.92043 12.8596 5.60158L12.6604 5.1758C12.4269 4.67534 12.6434 4.08025 13.1438 3.8467Z" fill="#C7C7C7"/>
<path d="M18.0528 1.60554C18.5468 1.35855 19.1476 1.55882 19.3946 2.0528L19.7491 2.76276C20.2213 3.70726 20.5501 4.71724 20.7237 5.75886C20.9158 6.91171 20.9158 8.08842 20.7237 9.24128C20.5501 10.2829 20.2213 11.2929 19.7491 12.2374L19.3946 12.9473C19.1476 13.4413 18.5468 13.6416 18.0528 13.3946C17.5588 13.1476 17.3585 12.5468 17.6055 12.0528L17.961 11.3428C18.3439 10.5769 18.6102 9.75786 18.751 8.91315C18.9069 7.97779 18.9069 7.02234 18.751 6.08698C18.6102 5.24228 18.3439 4.42327 17.961 3.65729L17.6055 2.94733C17.3585 2.45336 17.5588 1.85253 18.0528 1.60554Z" fill="#C7C7C7"/>
</svg>
