<svg width="187" height="186" viewBox="0 0 187 186" fill="none" xmlns="http://www.w3.org/2000/svg">
<path d="M0 11.2C0 7.27963 0 5.31945 0.762954 3.82207C1.43407 2.50493 2.50493 1.43407 3.82207 0.762954C5.31945 0 7.27963 0 11.2 0H175.8C179.72 0 181.681 0 183.178 0.762954C184.495 1.43407 185.566 2.50493 186.237 3.82207C187 5.31945 187 7.27963 187 11.2V174.8C187 178.72 187 180.681 186.237 182.178C185.566 183.495 184.495 184.566 183.178 185.237C181.681 186 179.72 186 175.8 186H11.2C7.27963 186 5.31945 186 3.82207 185.237C2.50493 184.566 1.43407 183.495 0.762954 182.178C0 180.681 0 178.72 0 174.8V11.2Z" fill="#1F1F1F"/>
<path d="M98 103.5H92.5C89.3652 103.5 88.1824 104.636 87.5693 105.594C86.7665 106.848 86.5 108.577 86.5 110C86.5 110.972 86.8672 112.431 87.7734 113.563C88.5536 114.539 89.8979 115.5 92.5 115.5C94.996 115.5 96.1701 114.55 96.8535 113.601C97.6838 112.447 98 110.943 98 110V103.5ZM106 110C106 112.223 105.365 115.469 103.346 118.274C101.179 121.284 97.6037 123.5 92.5 123.5C87.5022 123.5 83.8462 121.461 81.5264 118.562C79.3327 115.819 78.5 112.528 78.5 110C78.5 107.923 78.8339 104.402 80.8311 101.281C83.018 97.8641 86.835 95.5 92.5 95.5H98V61.5H106V110Z" fill="#EAEAEA"/>
</svg>
