<svg width="468" height="336" viewBox="0 0 468 336" fill="none" xmlns="http://www.w3.org/2000/svg">
<g clip-path="url(#clip0_88_44)">
<path d="M300 0C302.785 0 305.456 1.10625 307.425 3.07538C309.394 5.04451 310.5 7.71523 310.5 10.5V52.5C310.5 55.2848 309.394 57.9555 307.425 59.9246C305.456 61.8937 302.785 63 300 63C297.215 63 294.545 61.8937 292.575 59.9246C290.606 57.9555 289.5 55.2848 289.5 52.5V10.5C289.5 7.71523 290.606 5.04451 292.575 3.07538C294.545 1.10625 297.215 0 300 0ZM468 168C468 170.785 466.894 173.455 464.925 175.425C462.956 177.394 460.285 178.5 457.5 178.5H415.5C412.715 178.5 410.045 177.394 408.075 175.425C406.106 173.455 405 170.785 405 168C405 165.215 406.106 162.545 408.075 160.575C410.045 158.606 412.715 157.5 415.5 157.5H457.5C460.285 157.5 462.956 158.606 464.925 160.575C466.894 162.545 468 165.215 468 168ZM418.797 49.203C420.766 51.172 421.871 53.8423 421.871 56.6265C421.871 59.4107 420.766 62.081 418.797 64.05L389.103 93.765C388.127 94.7399 386.968 95.5129 385.693 96.04C384.418 96.567 383.052 96.8378 381.672 96.8368C378.886 96.8349 376.214 95.7261 374.246 93.7545C373.271 92.7783 372.498 91.6196 371.971 90.3446C371.444 89.0696 371.173 87.7032 371.174 86.3236C371.176 83.5372 372.284 80.8658 374.256 78.897L403.95 49.203C405.919 47.2346 408.589 46.1287 411.374 46.1287C414.158 46.1287 416.828 47.2346 418.797 49.203ZM418.797 286.797C416.828 288.765 414.158 289.871 411.374 289.871C408.589 289.871 405.919 288.765 403.95 286.797L374.256 257.103C372.343 255.123 371.285 252.47 371.309 249.717C371.333 246.964 372.437 244.331 374.384 242.384C376.331 240.437 378.964 239.333 381.717 239.309C384.47 239.285 387.123 240.343 389.103 242.256L418.797 271.95C420.766 273.919 421.871 276.589 421.871 279.374C421.871 282.158 420.766 284.828 418.797 286.797ZM225.744 93.765C223.775 95.7334 221.105 96.8393 218.321 96.8393C215.536 96.8393 212.866 95.7334 210.897 93.765L181.203 64.05C180.2 63.0814 179.4 61.9228 178.85 60.6417C178.3 59.3607 178.01 57.9829 177.998 56.5887C177.986 55.1945 178.252 53.8119 178.779 52.5215C179.307 51.2311 180.087 50.0587 181.073 49.0729C182.059 48.087 183.231 47.3073 184.522 46.7794C185.812 46.2514 187.195 45.9858 188.589 45.9979C189.983 46.01 191.361 46.2996 192.642 46.8499C193.923 47.4002 195.081 48.2001 196.05 49.203L225.744 78.897C226.722 79.8724 227.498 81.031 228.027 82.3067C228.556 83.5823 228.829 84.9499 228.829 86.331C228.829 87.7121 228.556 89.0797 228.027 90.3553C227.498 91.631 226.722 92.7896 225.744 93.765Z" fill="#FAD631"/>
<path d="M384 168C384 190.278 375.15 211.644 359.397 227.397C352.667 234.127 344.912 239.597 336.5 243.656C334.1 170.58 276 153.245 249 156L228.027 124.688C231.521 118.882 235.732 113.474 240.603 108.603C256.356 92.85 277.722 84 300 84C322.278 84 343.644 92.85 359.397 108.603C375.15 124.356 384 145.722 384 168Z" fill="#FAD631"/>
</g>
<path d="M52.1376 194.578C56.3048 172.597 67.0812 152.586 82.8929 137.474C98.7046 122.361 118.722 112.937 140.017 110.582C161.313 108.226 182.771 113.062 201.252 124.382C219.733 135.702 234.269 152.912 242.735 173.496C252.229 172.352 261.847 173.247 270.999 176.127C280.15 179.008 288.644 183.813 295.96 190.248C303.276 196.683 309.259 204.613 313.544 213.553C317.83 222.493 320.326 232.253 320.881 242.237C321.437 252.221 320.039 262.22 316.773 271.618C313.508 281.018 308.443 289.621 301.89 296.901C295.337 304.18 287.433 309.984 278.663 313.956C269.892 317.928 260.438 319.985 250.882 320H60.264C44.9922 320.019 30.2844 313.961 19.1206 303.056C7.95684 292.151 1.17103 277.213 0.137965 261.267C-0.895104 245.322 3.90167 229.562 13.5571 217.179C23.2116 204.797 37.0029 196.718 52.1376 194.578Z" fill="#C7C7C7"/>
<defs>
<clipPath id="clip0_88_44">
<rect width="336" height="336" fill="white" transform="translate(132)"/>
</clipPath>
</defs>
</svg>
