<svg width="34" height="39" viewBox="0 0 34 39" fill="none" xmlns="http://www.w3.org/2000/svg">
<path d="M29.55 14.858C31.9128 16.2221 33.0942 16.9042 33.4906 17.7947C33.8365 18.5714 33.8365 19.4584 33.4906 20.2351C33.0942 21.1256 31.9128 21.8077 29.55 23.1718L7.19999 36.0756C4.83722 37.4397 3.65584 38.1218 2.68642 38.0199C1.84085 37.9311 1.0727 37.4876 0.572951 36.7997C2.00084e-06 36.0111 2.06047e-06 34.647 2.17973e-06 31.9187L3.30781e-06 6.1111C3.42707e-06 3.38281 3.4867e-06 2.01866 0.572953 1.23007C1.0727 0.542218 1.84085 0.0987284 2.68642 0.0098556C3.65584 -0.0920344 4.83723 0.590041 7.2 1.95419L29.55 14.858Z" fill="#D9D9D9"/>
</svg>
