<svg width="294" height="295" viewBox="0 0 294 295" fill="none" xmlns="http://www.w3.org/2000/svg">
<path d="M47.7522 78.3593C51.5689 57.9939 61.4389 39.4551 75.9206 25.4534C90.4023 11.4516 108.736 2.72134 128.24 0.539033C147.744 -1.64328 167.397 2.83683 184.324 13.3243C201.251 23.8118 214.564 39.7566 222.318 58.8273C231.014 57.7669 239.822 58.5965 248.204 61.2651C256.586 63.9337 264.366 68.3854 271.066 74.3474C277.766 80.3095 283.247 87.6562 287.171 95.9387C291.096 104.221 293.383 113.264 293.891 122.514C294.4 131.764 293.119 141.027 290.129 149.735C287.138 158.443 282.5 166.414 276.498 173.158C270.496 179.902 263.257 185.279 255.224 188.959C247.191 192.639 238.532 194.545 229.78 194.559H55.1951C41.2078 194.576 27.7371 188.964 17.5124 178.861C7.28759 168.758 1.07257 154.918 0.126391 140.145C-0.819784 125.372 3.5735 110.771 12.4168 99.2983C21.2593 87.8266 33.8905 80.3413 47.7522 78.3593Z" fill="#C7C7C7"/>
<path d="M81.1045 215.332C80.3296 214.242 79.3473 213.316 78.214 212.605C75.9249 211.175 73.1614 210.713 70.5315 211.32C67.9015 211.927 65.6203 213.554 64.1898 215.843L47.0984 243.116C46.3278 244.248 45.7936 245.524 45.5275 246.867C45.2615 248.21 45.2691 249.593 45.55 250.933C45.8309 252.273 46.3793 253.542 47.1623 254.666C47.9453 255.789 48.9469 256.742 50.107 257.469C51.2672 258.196 52.5621 258.682 53.9143 258.897C55.2665 259.112 56.6481 259.052 57.9765 258.72C59.3049 258.388 60.5528 257.792 61.6454 256.967C62.738 256.142 63.653 255.105 64.3354 253.918L81.4269 226.644C82.1384 225.512 82.6198 224.25 82.8435 222.931C83.0671 221.613 83.0287 220.263 82.7303 218.959C82.4319 217.655 81.8794 216.423 81.1045 215.332Z" fill="#59D1EE"/>
<path d="M129.93 219.294C129.138 218.174 128.141 217.228 126.996 216.511C124.684 215.068 121.913 214.644 119.293 215.332C116.673 216.021 114.418 217.765 113.024 220.182L79.7242 277.777C78.972 278.974 78.4583 280.315 78.214 281.721C77.9697 283.127 77.9997 284.569 78.3022 285.96C78.6047 287.351 79.1736 288.664 79.9748 289.818C80.7759 290.973 81.7928 291.946 82.9647 292.68C84.1366 293.414 85.4393 293.893 86.7949 294.088C88.1505 294.284 89.5312 294.192 90.8542 293.819C92.1772 293.445 93.4154 292.797 94.4946 291.914C95.5739 291.031 96.472 289.93 97.1353 288.678L130.436 231.083C131.129 229.887 131.59 228.561 131.792 227.181C131.994 225.801 131.934 224.395 131.615 223.041C131.295 221.688 130.723 220.415 129.93 219.294Z" fill="#59D1EE"/>
<path d="M180.868 214.31C179.993 213.299 178.928 212.469 177.732 211.87C175.317 210.663 172.523 210.466 169.962 211.32C167.402 212.174 165.285 214.01 164.078 216.424L149.654 245.197C148.994 246.397 148.583 247.718 148.446 249.08C148.309 250.442 148.448 251.818 148.854 253.126C149.261 254.433 149.928 255.645 150.814 256.688C151.7 257.732 152.787 258.586 154.011 259.2C155.235 259.814 156.571 260.174 157.937 260.259C159.304 260.345 160.673 260.154 161.964 259.698C163.255 259.242 164.441 258.53 165.45 257.605C166.459 256.68 167.272 255.56 167.838 254.314L182.263 225.541C182.864 224.346 183.224 223.044 183.321 221.71C183.418 220.376 183.252 219.036 182.831 217.766C182.41 216.496 181.743 215.322 180.868 214.31Z" fill="#59D1EE"/>
<path d="M232.18 218.266C231.363 217.147 230.337 216.203 229.162 215.488C226.788 214.049 223.951 213.63 221.275 214.324C218.598 215.018 216.301 216.767 214.89 219.187L181.155 276.863C180.393 278.061 179.875 279.404 179.633 280.811C179.391 282.217 179.43 283.659 179.748 285.051C180.065 286.442 180.655 287.753 181.481 288.906C182.307 290.06 183.353 291.031 184.557 291.763C185.76 292.494 187.095 292.971 188.483 293.164C189.871 293.357 191.283 293.263 192.635 292.886C193.986 292.51 195.249 291.859 196.348 290.974C197.447 290.088 198.359 288.986 199.031 287.732L232.765 230.056C233.468 228.858 233.932 227.531 234.131 226.151C234.33 224.77 234.26 223.363 233.925 222.01C233.591 220.657 232.998 219.385 232.18 218.266Z" fill="#59D1EE"/>
</svg>
