<svg width="17" height="17" viewBox="0 0 17 17" fill="none" xmlns="http://www.w3.org/2000/svg">
<path d="M0.21967 0.21967C0.512563 -0.0732233 0.987324 -0.0732233 1.28022 0.21967L16.2802 15.2197C16.5731 15.5126 16.5731 15.9873 16.2802 16.2802C15.9873 16.5731 15.5126 16.5731 15.2197 16.2802L0.21967 1.28022C-0.0732233 0.987324 -0.0732233 0.512563 0.21967 0.21967Z" fill="#C7C7C7"/>
<path d="M6.25 3.24997L9.12109 0.699218L9.17676 0.638671L9.25 0.599608C9.60104 0.411549 9.93273 -0.0952097 10.498 0.0380262C10.8041 0.110168 11.0949 0.285311 11.2988 0.59955C11.495 0.901875 11.583 1.29077 11.583 1.74994V9.25L8.25 5.75L6.25 3.74996V3.24997Z" fill="#C7C7C7"/>
<path d="M1.75 5.25V9.25C1.75 9.75 2.05 10.75 3.25 10.75H5.75L9.75 14.25C10.139 14.4167 10.9836 14.65 11.25 14.25C11.5164 13.85 11.361 13.4167 11.25 13.25L2.25 4.25C2.08333 4.25 1.75 4.45 1.75 5.25Z" fill="#C7C7C7"/>
</svg>
