<svg width="236" height="236" viewBox="0 0 236 236" fill="none" xmlns="http://www.w3.org/2000/svg">
<path d="M118 236C116.044 236 114.168 235.223 112.785 233.84C111.402 232.457 110.625 230.581 110.625 228.625V209.553L101.096 219.097C99.7115 220.479 97.8341 221.255 95.877 221.254C93.92 221.253 92.0436 220.474 90.6607 219.089C89.2779 217.704 88.5018 215.827 88.5031 213.87C88.5045 211.913 89.2833 210.036 90.6681 208.653L110.625 188.697V130.774L60.4749 159.728L53.1589 187.015C52.6503 188.905 51.412 190.515 49.7163 191.491C48.0207 192.468 46.0066 192.731 44.1171 192.222C42.2276 191.713 40.6176 190.475 39.6411 188.779C38.6647 187.084 38.4018 185.07 38.9104 183.18L42.4061 170.171L25.8861 179.699C24.1931 180.662 22.1881 180.916 20.3087 180.405C18.4292 179.895 16.8279 178.662 15.8541 176.976C14.8803 175.289 14.6132 173.286 15.111 171.403C15.6087 169.52 16.831 167.911 18.5111 166.926L35.0311 157.397L21.9921 153.902C21.0565 153.65 20.1797 153.216 19.4117 152.625C18.6438 152.035 17.9996 151.299 17.5161 150.459C17.0326 149.619 16.7193 148.693 16.5939 147.732C16.4685 146.771 16.5336 145.795 16.7854 144.86C17.0372 143.924 17.4708 143.047 18.0615 142.279C18.6521 141.511 19.3883 140.867 20.2279 140.384C21.0675 139.9 21.9941 139.587 22.9548 139.462C23.9155 139.336 24.8915 139.401 25.8271 139.653L53.0851 146.954L103.25 118L53.0999 89.0458L25.8124 96.347C23.9352 96.8149 21.9493 96.5264 20.2829 95.5437C18.6164 94.5611 17.4028 92.963 16.9036 91.0939C16.4044 89.2248 16.6596 87.2344 17.6142 85.5518C18.5688 83.8691 20.1464 82.6289 22.0069 82.0985L35.0311 78.6027L18.5111 69.0743C17.6656 68.5935 16.9235 67.9503 16.3276 67.1816C15.7317 66.413 15.2937 65.534 15.0389 64.5954C14.7841 63.6567 14.7174 62.6769 14.8428 61.7124C14.9681 60.7479 15.283 59.8178 15.7694 58.9755C16.2557 58.1332 16.9038 57.3954 17.6764 56.8046C18.449 56.2138 19.3309 55.7816 20.2712 55.533C21.2115 55.2844 22.1917 55.2243 23.1553 55.356C24.119 55.4878 25.0471 55.8089 25.8861 56.3007L42.4061 65.8292L38.9104 52.805C38.642 51.8636 38.5637 50.8782 38.6801 49.9063C38.7964 48.9344 39.1051 47.9953 39.5882 47.1439C40.0712 46.2925 40.7189 45.5457 41.4934 44.9472C42.268 44.3487 43.154 43.9104 44.0998 43.6578C45.0455 43.4052 46.032 43.3434 47.0019 43.476C47.9718 43.6086 48.9055 43.933 49.7487 44.4302C50.5919 44.9274 51.3277 45.5875 51.9132 46.372C52.4987 47.1565 52.9221 48.0497 53.1589 48.9995L60.4601 76.2723L110.625 105.226V47.3033L90.6681 27.3465C89.9824 26.6618 89.4383 25.8487 89.0668 24.9537C88.6954 24.0587 88.5038 23.0993 88.5031 22.1302C88.5025 21.1612 88.6926 20.2015 89.0628 19.306C89.433 18.4104 89.976 17.5966 90.6607 16.9109C91.3455 16.2252 92.1586 15.6811 93.0536 15.3096C93.9486 14.9381 94.908 14.7466 95.877 14.7459C96.8461 14.7452 97.8057 14.9354 98.7013 15.3056C99.5968 15.6758 100.411 16.2188 101.096 16.9035L110.625 26.4467V7.375C110.625 5.41903 111.402 3.54317 112.785 2.16009C114.168 0.777007 116.044 0 118 0C119.956 0 121.832 0.777007 123.215 2.16009C124.598 3.54317 125.375 5.41903 125.375 7.375V26.4467L134.918 16.9035C136.303 15.5206 138.18 14.7445 140.137 14.7459C142.095 14.7473 143.971 15.526 145.354 16.9109C146.737 18.2957 147.513 20.1732 147.511 22.1302C147.51 24.0873 146.731 25.9636 145.346 27.3465L125.375 47.3033V105.226L175.525 76.2723L182.841 48.9848C183.349 47.0953 184.588 45.4852 186.283 44.5088C187.979 43.5323 189.993 43.2694 191.883 43.778C193.772 44.2866 195.382 45.5249 196.359 47.2205C197.335 48.9162 197.598 50.9303 197.089 52.8198L193.608 65.8292L210.128 56.3007C211.821 55.3382 213.826 55.0843 215.706 55.5946C217.585 56.1049 219.187 57.3378 220.16 59.0244C221.134 60.7109 221.401 62.7142 220.904 64.597C220.406 66.4798 219.183 68.0893 217.503 69.0743L200.983 78.6027L214.008 82.0985C215.897 82.6071 217.507 83.8454 218.484 85.541C219.46 87.2367 219.723 89.2508 219.214 91.1402C218.706 93.0297 217.468 94.6398 215.772 95.6162C214.076 96.5927 212.062 96.8556 210.173 96.347L182.915 89.0458L132.75 118L182.9 146.954L210.173 139.653C212.062 139.146 214.075 139.411 215.77 140.389C217.464 141.367 218.7 142.978 219.207 144.867C219.714 146.757 219.449 148.77 218.471 150.464C217.493 152.158 215.882 153.395 213.993 153.902L200.969 157.397L217.489 166.926C219.169 167.911 220.391 169.52 220.889 171.403C221.387 173.286 221.119 175.289 220.146 176.976C219.172 178.662 217.571 179.895 215.691 180.405C213.812 180.916 211.807 180.662 210.114 179.699L193.594 170.171L197.075 183.195C197.343 184.136 197.421 185.122 197.305 186.094C197.189 187.066 196.88 188.005 196.397 188.856C195.914 189.708 195.266 190.454 194.492 191.053C193.717 191.651 192.831 192.09 191.885 192.342C190.939 192.595 189.953 192.657 188.983 192.524C188.013 192.391 187.079 192.067 186.236 191.57C185.393 191.073 184.657 190.413 184.072 189.628C183.486 188.844 183.063 187.95 182.826 187.001L175.525 159.728L125.375 130.774V188.697L145.332 208.653C146.716 210.036 147.495 211.913 147.497 213.87C147.498 215.827 146.722 217.704 145.339 219.089C143.956 220.474 142.08 221.253 140.123 221.254C138.166 221.255 136.288 220.479 134.903 219.097L125.36 209.553V228.625C125.36 230.581 124.583 232.457 123.2 233.84C121.817 235.223 119.956 236 118 236Z" fill="#C7C7C7"/>
</svg>
