<svg width="358" height="347" viewBox="0 0 358 347" fill="none" xmlns="http://www.w3.org/2000/svg">
<path d="M60.0445 235.572C62.856 236.511 65.1798 238.528 66.5055 241.179C67.8312 243.831 68.0504 246.9 67.115 249.713L55.9275 283.275C55.5061 284.72 54.7976 286.065 53.8444 287.229C52.8911 288.394 51.7127 289.354 50.3797 290.052C49.0467 290.751 47.5865 291.173 46.0864 291.294C44.5864 291.415 43.0774 291.232 41.6497 290.756C40.222 290.28 38.905 289.521 37.7776 288.524C36.6501 287.528 35.7353 286.314 35.088 284.955C34.4406 283.596 34.074 282.121 34.0101 280.618C33.9462 279.114 34.1863 277.613 34.716 276.205L45.9035 242.642C46.8429 239.831 48.8598 237.507 51.5111 236.181C54.1625 234.855 57.2316 234.636 60.0445 235.572ZM272.607 235.572C275.419 236.511 277.742 238.528 279.068 241.179C280.394 243.831 280.613 246.9 279.678 249.713L268.49 283.275C267.471 285.983 265.443 288.192 262.831 289.437C260.219 290.681 257.226 290.866 254.481 289.95C251.736 289.035 249.452 287.092 248.109 284.529C246.766 281.966 246.468 278.982 247.278 276.205L258.466 242.642C259.405 239.831 261.422 237.507 264.074 236.181C266.725 234.855 269.794 234.636 272.607 235.572ZM104.795 269.134C107.606 270.073 109.93 272.09 111.255 274.742C112.581 277.393 112.8 280.462 111.865 283.275L100.677 316.838C100.256 318.282 99.5476 319.627 98.5944 320.792C97.6411 321.956 96.4627 322.916 95.1297 323.615C93.7967 324.313 92.3365 324.735 90.8364 324.856C89.3364 324.977 87.8274 324.794 86.3997 324.318C84.972 323.843 83.655 323.084 82.5276 322.087C81.4001 321.09 80.4853 319.876 79.838 318.517C79.1906 317.159 78.824 315.684 78.7601 314.18C78.6962 312.677 78.9363 311.176 79.466 309.767L90.6535 276.205C91.5929 273.393 93.6098 271.069 96.2611 269.744C98.9125 268.418 101.982 268.199 104.795 269.134ZM317.357 269.134C320.169 270.073 322.492 272.09 323.818 274.742C325.144 277.393 325.363 280.462 324.428 283.275L313.24 316.838C312.221 319.546 310.193 321.754 307.581 322.999C304.969 324.244 301.976 324.428 299.231 323.513C296.486 322.598 294.202 320.655 292.859 318.092C291.516 315.529 291.218 312.545 292.029 309.767L303.216 276.205C304.155 273.393 306.172 271.069 308.824 269.744C311.475 268.418 314.544 268.199 317.357 269.134Z" fill="#36C8EB"/>
<path d="M157.56 241.175C158.491 239.32 159.919 237.759 161.685 236.668C163.451 235.578 165.486 235 167.562 235H189.937C191.709 235.001 193.455 235.423 195.032 236.232C196.608 237.04 197.971 238.211 199.006 239.648C200.042 241.086 200.721 242.749 200.988 244.5C201.255 246.252 201.103 248.042 200.543 249.723L194.278 268.562H212.312C214.417 268.565 216.479 269.162 218.26 270.285C220.041 271.407 221.469 273.009 222.381 274.906C223.292 276.804 223.65 278.92 223.412 281.012C223.175 283.104 222.352 285.086 221.038 286.731L176.288 342.668C174.692 344.652 172.466 346.031 169.98 346.579C167.493 347.126 164.894 346.809 162.612 345.68C160.33 344.551 158.501 342.677 157.428 340.368C156.355 338.059 156.102 335.453 156.71 332.98L164.43 302.125H145.187C143.279 302.125 141.403 301.637 139.737 300.708C138.071 299.778 136.67 298.438 135.668 296.815C134.666 295.191 134.095 293.339 134.011 291.433C133.926 289.527 134.331 287.631 135.185 285.925L157.56 241.175Z" fill="#C7C7C7"/>
<path d="M58.1472 90.2168C62.7948 66.7697 74.8133 45.4255 92.4475 29.3051C110.082 13.1845 132.407 3.13315 156.157 0.620601C179.907 -1.89194 203.838 3.26611 224.449 15.3405C245.061 27.415 261.272 45.7727 270.714 67.7292C281.303 66.5084 292.028 67.4635 302.235 70.5359C312.442 73.6084 321.915 78.7336 330.074 85.5979C338.233 92.4621 344.906 100.921 349.685 110.456C354.464 119.992 357.249 130.403 357.868 141.053C358.487 151.703 356.928 162.368 353.286 172.393C349.644 182.419 343.996 191.596 336.688 199.361C329.379 207.126 320.564 213.316 310.783 217.553C301.001 221.79 290.458 223.984 279.8 224H67.2103C50.1782 224.02 33.7751 217.558 21.3245 205.926C8.87398 194.294 1.30602 178.36 0.153878 161.352C-0.998267 144.343 4.3514 127.533 15.1198 114.324C25.8871 101.117 41.2681 92.4988 58.1472 90.2168Z" fill="#B2B2B2"/>
</svg>
