<svg width="523" height="480" viewBox="0 0 523 480" fill="none" xmlns="http://www.w3.org/2000/svg">
<g clip-path="url(#clip0_101_191)">
<path d="M293.599 46.98C290.363 41.8069 285.698 37.509 280.073 34.5202C274.449 31.5314 268.065 29.9575 261.565 29.9575C255.066 29.9575 248.682 31.5314 243.058 34.5202C237.433 37.509 232.767 41.8069 229.532 46.98L5.39346 396.99C-9.54473 420.33 8.36802 450 37.4272 450H485.671C514.73 450 532.676 420.3 517.705 396.99L293.599 46.98ZM261.5 150C278.988 150 292.684 163.86 290.919 179.85L279.478 285.06C279.094 289.193 277.033 293.043 273.704 295.849C270.375 298.655 266.02 300.212 261.5 300.212C256.98 300.212 252.625 298.655 249.296 295.849C245.967 293.043 243.906 289.193 243.522 285.06L232.081 179.85C231.67 176.077 232.125 172.267 233.416 168.665C234.708 165.063 236.806 161.749 239.578 158.937C242.349 156.125 245.732 153.877 249.508 152.338C253.283 150.799 257.369 150.002 261.5 150ZM261.565 330C270.235 330 278.549 333.161 284.679 338.787C290.809 344.413 294.253 352.044 294.253 360C294.253 367.957 290.809 375.587 284.679 381.213C278.549 386.839 270.235 390 261.565 390C252.896 390 244.582 386.839 238.452 381.213C232.322 375.587 228.878 367.957 228.878 360C228.878 352.044 232.322 344.413 238.452 338.787C244.582 333.161 252.896 330 261.565 330Z" fill="#C7C7C7"/>
</g>
<defs>
<clipPath id="clip0_101_191">
<rect width="523" height="480" fill="white"/>
</clipPath>
</defs>
</svg>
