<svg width="2146" height="921" viewBox="0 0 2146 921" fill="none" xmlns="http://www.w3.org/2000/svg">
<circle cx="659" cy="910" r="11" fill="#CDCDCD"/>
<circle cx="659" cy="838" r="11" fill="#CDCDCD"/>
<circle cx="695" cy="838" r="11" fill="#CDCDCD"/>
<circle cx="695" cy="802" r="11" fill="#CDCDCD"/>
<circle cx="730" cy="802" r="11" fill="#CDCDCD"/>
<circle cx="730" cy="766" r="11" fill="#CDCDCD"/>
<circle cx="766" cy="766" r="11" fill="#CDCDCD"/>
<circle cx="766" cy="730" r="11" fill="#CDCDCD"/>
<circle cx="802" cy="730" r="11" fill="#CDCDCD"/>
<circle cx="802" cy="694" r="11" fill="#CDCDCD"/>
<circle cx="838" cy="694" r="11" fill="#CDCDCD"/>
<circle cx="838" cy="658" r="11" fill="#CDCDCD"/>
<circle cx="802" cy="658" r="11" fill="#CDCDCD"/>
<circle cx="766" cy="658" r="11" fill="#CDCDCD"/>
<circle cx="766" cy="694" r="11" fill="#CDCDCD"/>
<circle cx="730" cy="694" r="11" fill="#CDCDCD"/>
<circle cx="730" cy="730" r="11" fill="#CDCDCD"/>
<circle cx="695" cy="730" r="11" fill="#CDCDCD"/>
<circle cx="660" cy="730" r="11" fill="#CDCDCD"/>
<circle cx="659" cy="730" r="11" fill="#CDCDCD"/>
<circle cx="659" cy="694" r="11" fill="#CDCDCD"/>
<circle cx="695" cy="694" r="11" fill="#CDCDCD"/>
<circle cx="695" cy="658" r="11" fill="#CDCDCD"/>
<circle cx="730" cy="658" r="11" fill="#CDCDCD"/>
<circle cx="730" cy="622" r="11" fill="#CDCDCD"/>
<circle cx="766" cy="622" r="11" fill="#CDCDCD"/>
<circle cx="802" cy="622" r="11" fill="#CDCDCD"/>
<circle cx="838" cy="622" r="11" fill="#CDCDCD"/>
<circle cx="874" cy="622" r="11" fill="#CDCDCD"/>
<circle cx="874" cy="586" r="11" fill="#CDCDCD"/>
<circle cx="838" cy="586" r="11" fill="#CDCDCD"/>
<circle cx="802" cy="586" r="11" fill="#CDCDCD"/>
<circle cx="766" cy="586" r="11" fill="#CDCDCD"/>
<circle cx="730" cy="586" r="11" fill="#CDCDCD"/>
<circle cx="695" cy="586" r="11" fill="#CDCDCD"/>
<circle cx="695" cy="622" r="11" fill="#CDCDCD"/>
<circle cx="659" cy="622" r="11" fill="#CDCDCD"/>
<circle cx="659" cy="658" r="11" fill="#CDCDCD"/>
<circle cx="623" cy="658" r="11" fill="#CDCDCD"/>
<circle cx="623" cy="622" r="11" fill="#CDCDCD"/>
<circle cx="587" cy="622" r="11" fill="#CDCDCD"/>
<circle cx="587" cy="586" r="11" fill="#CDCDCD"/>
<circle cx="623" cy="586" r="11" fill="#CDCDCD"/>
<circle cx="659" cy="586" r="11" fill="#CDCDCD"/>
<circle cx="659" cy="550" r="11" fill="#CDCDCD"/>
<circle cx="695" cy="550" r="11" fill="#CDCDCD"/>
<circle cx="730" cy="550" r="11" fill="#CDCDCD"/>
<circle cx="766" cy="550" r="11" fill="#CDCDCD"/>
<circle cx="802" cy="550" r="11" fill="#CDCDCD"/>
<circle cx="766" cy="514" r="11" fill="#CDCDCD"/>
<circle cx="730" cy="514" r="11" fill="#CDCDCD"/>
<circle cx="695" cy="514" r="11" fill="#CDCDCD"/>
<circle cx="695" cy="478" r="11" fill="#CDCDCD"/>
<circle cx="659" cy="478" r="11" fill="#CDCDCD"/>
<circle cx="659" cy="514" r="11" fill="#CDCDCD"/>
<circle cx="623" cy="514" r="11" fill="#CDCDCD"/>
<circle cx="623" cy="550" r="11" fill="#CDCDCD"/>
<circle cx="587" cy="550" r="11" fill="#CDCDCD"/>
<circle cx="623" cy="478" r="11" fill="#CDCDCD"/>
<circle cx="587" cy="478" r="11" fill="#CDCDCD"/>
<circle cx="551" cy="478" r="11" fill="#CDCDCD"/>
<circle cx="695" cy="766" r="11" fill="#CDCDCD"/>
<circle cx="659" cy="766" r="11" fill="#CDCDCD"/>
<circle cx="659" cy="802" r="11" fill="#CDCDCD"/>
<circle cx="623" cy="838" r="11" fill="#CDCDCD"/>
<circle cx="623" cy="874" r="11" fill="#CDCDCD"/>
<circle cx="659" cy="874" r="11" fill="#CDCDCD"/>
<circle cx="659" cy="910" r="11" fill="#CDCDCD"/>
<circle cx="659" cy="838" r="11" fill="#CDCDCD"/>
<circle cx="695" cy="838" r="11" fill="#CDCDCD"/>
<circle cx="695" cy="802" r="11" fill="#CDCDCD"/>
<circle cx="730" cy="802" r="11" fill="#CDCDCD"/>
<circle cx="730" cy="766" r="11" fill="#CDCDCD"/>
<circle cx="766" cy="766" r="11" fill="#CDCDCD"/>
<circle cx="766" cy="730" r="11" fill="#CDCDCD"/>
<circle cx="802" cy="730" r="11" fill="#CDCDCD"/>
<circle cx="802" cy="694" r="11" fill="#CDCDCD"/>
<circle cx="838" cy="694" r="11" fill="#CDCDCD"/>
<circle cx="838" cy="658" r="11" fill="#CDCDCD"/>
<circle cx="802" cy="658" r="11" fill="#CDCDCD"/>
<circle cx="766" cy="658" r="11" fill="#CDCDCD"/>
<circle cx="766" cy="694" r="11" fill="#CDCDCD"/>
<circle cx="730" cy="694" r="11" fill="#CDCDCD"/>
<circle cx="730" cy="730" r="11" fill="#CDCDCD"/>
<circle cx="695" cy="730" r="11" fill="#CDCDCD"/>
<circle cx="660" cy="730" r="11" fill="#CDCDCD"/>
<circle cx="659" cy="730" r="11" fill="#CDCDCD"/>
<circle cx="659" cy="694" r="11" fill="#CDCDCD"/>
<circle cx="695" cy="694" r="11" fill="#CDCDCD"/>
<circle cx="695" cy="658" r="11" fill="#CDCDCD"/>
<circle cx="730" cy="658" r="11" fill="#CDCDCD"/>
<circle cx="730" cy="622" r="11" fill="#CDCDCD"/>
<circle cx="766" cy="622" r="11" fill="#CDCDCD"/>
<circle cx="802" cy="622" r="11" fill="#CDCDCD"/>
<circle cx="838" cy="622" r="11" fill="#CDCDCD"/>
<circle cx="874" cy="622" r="11" fill="#CDCDCD"/>
<circle cx="874" cy="586" r="11" fill="#CDCDCD"/>
<circle cx="838" cy="586" r="11" fill="#CDCDCD"/>
<circle cx="802" cy="586" r="11" fill="#CDCDCD"/>
<circle cx="766" cy="586" r="11" fill="#CDCDCD"/>
<circle cx="730" cy="586" r="11" fill="#CDCDCD"/>
<circle cx="695" cy="586" r="11" fill="#CDCDCD"/>
<circle cx="695" cy="622" r="11" fill="#CDCDCD"/>
<circle cx="659" cy="622" r="11" fill="#CDCDCD"/>
<circle cx="659" cy="658" r="11" fill="#CDCDCD"/>
<circle cx="623" cy="658" r="11" fill="#CDCDCD"/>
<circle cx="623" cy="622" r="11" fill="#CDCDCD"/>
<circle cx="587" cy="622" r="11" fill="#CDCDCD"/>
<circle cx="587" cy="586" r="11" fill="#CDCDCD"/>
<circle cx="623" cy="586" r="11" fill="#CDCDCD"/>
<circle cx="659" cy="586" r="11" fill="#CDCDCD"/>
<circle cx="659" cy="550" r="11" fill="#CDCDCD"/>
<circle cx="695" cy="550" r="11" fill="#CDCDCD"/>
<circle cx="730" cy="550" r="11" fill="#CDCDCD"/>
<circle cx="766" cy="550" r="11" fill="#CDCDCD"/>
<circle cx="802" cy="550" r="11" fill="#CDCDCD"/>
<circle cx="766" cy="514" r="11" fill="#CDCDCD"/>
<circle cx="730" cy="514" r="11" fill="#CDCDCD"/>
<circle cx="695" cy="514" r="11" fill="#CDCDCD"/>
<circle cx="695" cy="478" r="11" fill="#CDCDCD"/>
<circle cx="659" cy="478" r="11" fill="#CDCDCD"/>
<circle cx="659" cy="514" r="11" fill="#CDCDCD"/>
<circle cx="623" cy="514" r="11" fill="#CDCDCD"/>
<circle cx="623" cy="550" r="11" fill="#CDCDCD"/>
<circle cx="587" cy="550" r="11" fill="#CDCDCD"/>
<circle cx="623" cy="478" r="11" fill="#CDCDCD"/>
<circle cx="587" cy="478" r="11" fill="#CDCDCD"/>
<circle cx="551" cy="478" r="11" fill="#CDCDCD"/>
<circle cx="695" cy="766" r="11" fill="#CDCDCD"/>
<circle cx="659" cy="766" r="11" fill="#CDCDCD"/>
<circle cx="659" cy="802" r="11" fill="#CDCDCD"/>
<circle cx="623" cy="838" r="11" fill="#CDCDCD"/>
<circle cx="623" cy="874" r="11" fill="#CDCDCD"/>
<circle cx="659" cy="874" r="11" fill="#CDCDCD"/>
<circle cx="659" cy="910" r="11" fill="#CDCDCD"/>
<circle cx="659" cy="838" r="11" fill="#CDCDCD"/>
<circle cx="695" cy="838" r="11" fill="#CDCDCD"/>
<circle cx="695" cy="802" r="11" fill="#CDCDCD"/>
<circle cx="730" cy="802" r="11" fill="#CDCDCD"/>
<circle cx="730" cy="766" r="11" fill="#CDCDCD"/>
<circle cx="766" cy="766" r="11" fill="#CDCDCD"/>
<circle cx="766" cy="730" r="11" fill="#CDCDCD"/>
<circle cx="802" cy="730" r="11" fill="#CDCDCD"/>
<circle cx="802" cy="694" r="11" fill="#CDCDCD"/>
<circle cx="838" cy="694" r="11" fill="#CDCDCD"/>
<circle cx="838" cy="658" r="11" fill="#CDCDCD"/>
<circle cx="802" cy="658" r="11" fill="#CDCDCD"/>
<circle cx="766" cy="658" r="11" fill="#CDCDCD"/>
<circle cx="766" cy="694" r="11" fill="#CDCDCD"/>
<circle cx="730" cy="694" r="11" fill="#CDCDCD"/>
<circle cx="730" cy="730" r="11" fill="#CDCDCD"/>
<circle cx="695" cy="730" r="11" fill="#CDCDCD"/>
<circle cx="660" cy="730" r="11" fill="#CDCDCD"/>
<circle cx="659" cy="730" r="11" fill="#CDCDCD"/>
<circle cx="659" cy="694" r="11" fill="#CDCDCD"/>
<circle cx="695" cy="694" r="11" fill="#CDCDCD"/>
<circle cx="695" cy="658" r="11" fill="#CDCDCD"/>
<circle cx="730" cy="658" r="11" fill="#CDCDCD"/>
<circle cx="730" cy="622" r="11" fill="#CDCDCD"/>
<circle cx="766" cy="622" r="11" fill="#CDCDCD"/>
<circle cx="802" cy="622" r="11" fill="#CDCDCD"/>
<circle cx="838" cy="622" r="11" fill="#CDCDCD"/>
<circle cx="874" cy="622" r="11" fill="#CDCDCD"/>
<circle cx="874" cy="586" r="11" fill="#CDCDCD"/>
<circle cx="838" cy="586" r="11" fill="#CDCDCD"/>
<circle cx="802" cy="586" r="11" fill="#CDCDCD"/>
<circle cx="766" cy="586" r="11" fill="#CDCDCD"/>
<circle cx="730" cy="586" r="11" fill="#CDCDCD"/>
<circle cx="695" cy="586" r="11" fill="#CDCDCD"/>
<circle cx="695" cy="622" r="11" fill="#CDCDCD"/>
<circle cx="659" cy="622" r="11" fill="#CDCDCD"/>
<circle cx="659" cy="658" r="11" fill="#CDCDCD"/>
<circle cx="623" cy="658" r="11" fill="#CDCDCD"/>
<circle cx="623" cy="622" r="11" fill="#CDCDCD"/>
<circle cx="587" cy="622" r="11" fill="#CDCDCD"/>
<circle cx="587" cy="586" r="11" fill="#CDCDCD"/>
<circle cx="623" cy="586" r="11" fill="#CDCDCD"/>
<circle cx="659" cy="586" r="11" fill="#CDCDCD"/>
<circle cx="659" cy="550" r="11" fill="#CDCDCD"/>
<circle cx="695" cy="550" r="11" fill="#CDCDCD"/>
<circle cx="730" cy="550" r="11" fill="#CDCDCD"/>
<circle cx="766" cy="550" r="11" fill="#CDCDCD"/>
<circle cx="802" cy="550" r="11" fill="#CDCDCD"/>
<circle cx="766" cy="514" r="11" fill="#CDCDCD"/>
<circle cx="730" cy="514" r="11" fill="#CDCDCD"/>
<circle cx="695" cy="514" r="11" fill="#CDCDCD"/>
<circle cx="695" cy="478" r="11" fill="#CDCDCD"/>
<circle cx="659" cy="478" r="11" fill="#CDCDCD"/>
<circle cx="659" cy="514" r="11" fill="#CDCDCD"/>
<circle cx="623" cy="514" r="11" fill="#CDCDCD"/>
<circle cx="623" cy="550" r="11" fill="#CDCDCD"/>
<circle cx="587" cy="550" r="11" fill="#CDCDCD"/>
<circle cx="623" cy="478" r="11" fill="#CDCDCD"/>
<circle cx="587" cy="478" r="11" fill="#CDCDCD"/>
<circle cx="551" cy="478" r="11" fill="#CDCDCD"/>
<circle cx="695" cy="766" r="11" fill="#CDCDCD"/>
<circle cx="659" cy="766" r="11" fill="#CDCDCD"/>
<circle cx="659" cy="802" r="11" fill="#CDCDCD"/>
<circle cx="623" cy="838" r="11" fill="#CDCDCD"/>
<circle cx="623" cy="874" r="11" fill="#CDCDCD"/>
<circle cx="659" cy="874" r="11" fill="#CDCDCD"/>
<circle cx="659" cy="910" r="11" fill="#CDCDCD"/>
<circle cx="659" cy="838" r="11" fill="#CDCDCD"/>
<circle cx="695" cy="838" r="11" fill="#CDCDCD"/>
<circle cx="695" cy="802" r="11" fill="#CDCDCD"/>
<circle cx="730" cy="802" r="11" fill="#CDCDCD"/>
<circle cx="730" cy="766" r="11" fill="#CDCDCD"/>
<circle cx="766" cy="766" r="11" fill="#CDCDCD"/>
<circle cx="766" cy="730" r="11" fill="#CDCDCD"/>
<circle cx="802" cy="730" r="11" fill="#CDCDCD"/>
<circle cx="802" cy="694" r="11" fill="#CDCDCD"/>
<circle cx="838" cy="694" r="11" fill="#CDCDCD"/>
<circle cx="838" cy="658" r="11" fill="#CDCDCD"/>
<circle cx="802" cy="658" r="11" fill="#CDCDCD"/>
<circle cx="766" cy="658" r="11" fill="#CDCDCD"/>
<circle cx="766" cy="694" r="11" fill="#CDCDCD"/>
<circle cx="730" cy="694" r="11" fill="#CDCDCD"/>
<circle cx="730" cy="730" r="11" fill="#CDCDCD"/>
<circle cx="695" cy="730" r="11" fill="#CDCDCD"/>
<circle cx="660" cy="730" r="11" fill="#CDCDCD"/>
<circle cx="659" cy="730" r="11" fill="#CDCDCD"/>
<circle cx="659" cy="694" r="11" fill="#CDCDCD"/>
<circle cx="695" cy="694" r="11" fill="#CDCDCD"/>
<circle cx="695" cy="658" r="11" fill="#CDCDCD"/>
<circle cx="730" cy="658" r="11" fill="#CDCDCD"/>
<circle cx="730" cy="622" r="11" fill="#CDCDCD"/>
<circle cx="766" cy="622" r="11" fill="#CDCDCD"/>
<circle cx="802" cy="622" r="11" fill="#CDCDCD"/>
<circle cx="838" cy="622" r="11" fill="#CDCDCD"/>
<circle cx="874" cy="622" r="11" fill="#CDCDCD"/>
<circle cx="874" cy="586" r="11" fill="#CDCDCD"/>
<circle cx="838" cy="586" r="11" fill="#CDCDCD"/>
<circle cx="802" cy="586" r="11" fill="#CDCDCD"/>
<circle cx="766" cy="586" r="11" fill="#CDCDCD"/>
<circle cx="730" cy="586" r="11" fill="#CDCDCD"/>
<circle cx="695" cy="586" r="11" fill="#CDCDCD"/>
<circle cx="695" cy="622" r="11" fill="#CDCDCD"/>
<circle cx="659" cy="622" r="11" fill="#CDCDCD"/>
<circle cx="659" cy="658" r="11" fill="#CDCDCD"/>
<circle cx="623" cy="658" r="11" fill="#CDCDCD"/>
<circle cx="623" cy="622" r="11" fill="#CDCDCD"/>
<circle cx="587" cy="622" r="11" fill="#CDCDCD"/>
<circle cx="587" cy="586" r="11" fill="#CDCDCD"/>
<circle cx="623" cy="586" r="11" fill="#CDCDCD"/>
<circle cx="659" cy="586" r="11" fill="#CDCDCD"/>
<circle cx="659" cy="550" r="11" fill="#CDCDCD"/>
<circle cx="695" cy="550" r="11" fill="#CDCDCD"/>
<circle cx="730" cy="550" r="11" fill="#CDCDCD"/>
<circle cx="766" cy="550" r="11" fill="#CDCDCD"/>
<circle cx="802" cy="550" r="11" fill="#CDCDCD"/>
<circle cx="766" cy="514" r="11" fill="#CDCDCD"/>
<circle cx="730" cy="514" r="11" fill="#CDCDCD"/>
<circle cx="695" cy="514" r="11" fill="#CDCDCD"/>
<circle cx="695" cy="478" r="11" fill="#CDCDCD"/>
<circle cx="659" cy="478" r="11" fill="#CDCDCD"/>
<circle cx="659" cy="514" r="11" fill="#CDCDCD"/>
<circle cx="623" cy="514" r="11" fill="#CDCDCD"/>
<circle cx="623" cy="550" r="11" fill="#CDCDCD"/>
<circle cx="587" cy="550" r="11" fill="#CDCDCD"/>
<circle cx="623" cy="478" r="11" fill="#CDCDCD"/>
<circle cx="587" cy="478" r="11" fill="#CDCDCD"/>
<circle cx="551" cy="478" r="11" fill="#CDCDCD"/>
<circle cx="551" cy="442" r="11" fill="#CDCDCD"/>
<circle cx="515" cy="442" r="11" fill="#CDCDCD"/>
<circle cx="479" cy="442" r="11" fill="#CDCDCD"/>
<circle cx="479" cy="406" r="11" fill="#CDCDCD"/>
<circle cx="443" cy="406" r="11" fill="#CDCDCD"/>
<circle cx="443" cy="370" r="11" fill="#CDCDCD"/>
<circle cx="406" cy="370" r="11" fill="#CDCDCD"/>
<circle cx="406" cy="334" r="11" fill="#CDCDCD"/>
<circle cx="371" cy="334" r="11" fill="#CDCDCD"/>
<circle cx="371" cy="299" r="11" fill="#CDCDCD"/>
<circle cx="335" cy="299" r="11" fill="#CDCDCD"/>
<circle cx="335" cy="261" r="11" fill="#CDCDCD"/>
<circle cx="371" cy="261" r="11" fill="#CDCDCD"/>
<circle cx="406" cy="261" r="11" fill="#CDCDCD"/>
<circle cx="443" cy="261" r="11" fill="#CDCDCD"/>
<circle cx="479" cy="261" r="11" fill="#CDCDCD"/>
<circle cx="515" cy="261" r="11" fill="#CDCDCD"/>
<circle cx="551" cy="261" r="11" fill="#CDCDCD"/>
<circle cx="587" cy="261" r="11" fill="#CDCDCD"/>
<circle cx="623" cy="261" r="11" fill="#CDCDCD"/>
<circle cx="623" cy="299" r="11" fill="#CDCDCD"/>
<circle cx="587" cy="299" r="11" fill="#CDCDCD"/>
<circle cx="551" cy="299" r="11" fill="#CDCDCD"/>
<circle cx="515" cy="299" r="11" fill="#CDCDCD"/>
<circle cx="479" cy="299" r="11" fill="#CDCDCD"/>
<circle cx="443" cy="299" r="11" fill="#CDCDCD"/>
<circle cx="406" cy="298" r="11" fill="#CDCDCD"/>
<circle cx="443" cy="334" r="11" fill="#CDCDCD"/>
<circle cx="479" cy="334" r="11" fill="#CDCDCD"/>
<circle cx="515" cy="334" r="11" fill="#CDCDCD"/>
<circle cx="551" cy="334" r="11" fill="#CDCDCD"/>
<circle cx="587" cy="334" r="11" fill="#CDCDCD"/>
<circle cx="479" cy="370" r="11" fill="#CDCDCD"/>
<circle cx="587" cy="370" r="11" fill="#CDCDCD"/>
<circle cx="587" cy="406" r="11" fill="#CDCDCD"/>
<circle cx="551" cy="406" r="11" fill="#CDCDCD"/>
<circle cx="623" cy="406" r="11" fill="#CDCDCD"/>
<circle cx="659" cy="406" r="11" fill="#CDCDCD"/>
<circle cx="659" cy="261" r="11" fill="#CDCDCD"/>
<circle cx="695" cy="261" r="11" fill="#CDCDCD"/>
<circle cx="730" cy="261" r="11" fill="#CDCDCD"/>
<circle cx="730" cy="225" r="11" fill="#CDCDCD"/>
<circle cx="766" cy="225" r="11" fill="#CDCDCD"/>
<circle cx="695" cy="225" r="11" fill="#CDCDCD"/>
<circle cx="659" cy="225" r="11" fill="#CDCDCD"/>
<circle cx="623" cy="225" r="11" fill="#CDCDCD"/>
<circle cx="587" cy="225" r="11" fill="#CDCDCD"/>
<circle cx="551" cy="225" r="11" fill="#CDCDCD"/>
<circle cx="515" cy="225" r="11" fill="#CDCDCD"/>
<circle cx="479" cy="225" r="11" fill="#CDCDCD"/>
<circle cx="443" cy="225" r="11" fill="#CDCDCD"/>
<circle cx="406" cy="225" r="11" fill="#CDCDCD"/>
<circle cx="371" cy="225" r="11" fill="#CDCDCD"/>
<circle cx="335" cy="225" r="11" fill="#CDCDCD"/>
<circle cx="300" cy="225" r="11" fill="#CDCDCD"/>
<circle cx="300" cy="190" r="11" fill="#CDCDCD"/>
<circle cx="263" cy="190" r="11" fill="#CDCDCD"/>
<circle cx="263" cy="154" r="11" fill="#CDCDCD"/>
<circle cx="227" cy="154" r="11" fill="#CDCDCD"/>
<circle cx="191" cy="154" r="11" fill="#CDCDCD"/>
<circle cx="155" cy="154" r="11" fill="#CDCDCD"/>
<circle cx="119" cy="154" r="11" fill="#CDCDCD"/>
<circle cx="83" cy="154" r="11" fill="#CDCDCD"/>
<circle cx="83" cy="190" r="11" fill="#CDCDCD"/>
<circle cx="46" cy="190" r="11" fill="#CDCDCD"/>
<circle cx="46" cy="118" r="11" fill="#CDCDCD"/>
<circle cx="11" cy="118" r="11" fill="#CDCDCD"/>
<circle cx="83" cy="118" r="11" fill="#CDCDCD"/>
<circle cx="119" cy="118" r="11" fill="#CDCDCD"/>
<circle cx="191" cy="82" r="11" fill="#CDCDCD"/>
<circle cx="227" cy="82" r="11" fill="#CDCDCD"/>
<circle cx="263" cy="82" r="11" fill="#CDCDCD"/>
<circle cx="264" cy="118" r="11" fill="#CDCDCD"/>
<circle cx="299" cy="118" r="11" fill="#CDCDCD"/>
<circle cx="300" cy="82" r="11" fill="#CDCDCD"/>
<circle cx="335" cy="82" r="11" fill="#CDCDCD"/>
<circle cx="335" cy="46" r="11" fill="#CDCDCD"/>
<circle cx="371" cy="46" r="11" fill="#CDCDCD"/>
<circle cx="406" cy="46" r="11" fill="#CDCDCD"/>
<circle cx="406" cy="82" r="11" fill="#CDCDCD"/>
<circle cx="371" cy="82" r="11" fill="#CDCDCD"/>
<circle cx="371" cy="118" r="11" fill="#CDCDCD"/>
<circle cx="335" cy="118" r="11" fill="#CDCDCD"/>
<circle cx="335" cy="154" r="11" fill="#CDCDCD"/>
<circle cx="300" cy="154" r="11" fill="#CDCDCD"/>
<circle cx="335" cy="190" r="11" fill="#CDCDCD"/>
<circle cx="371" cy="190" r="11" fill="#CDCDCD"/>
<circle cx="371" cy="154" r="11" fill="#CDCDCD"/>
<circle cx="406" cy="154" r="11" fill="#CDCDCD"/>
<circle cx="406" cy="118" r="11" fill="#CDCDCD"/>
<circle cx="443" cy="118" r="11" fill="#CDCDCD"/>
<circle cx="443" cy="154" r="11" fill="#CDCDCD"/>
<circle cx="443" cy="190" r="11" fill="#CDCDCD"/>
<circle cx="406" cy="190" r="11" fill="#CDCDCD"/>
<circle cx="443" cy="82" r="11" fill="#CDCDCD"/>
<circle cx="443" cy="46" r="11" fill="#CDCDCD"/>
<circle cx="479" cy="46" r="11" fill="#CDCDCD"/>
<circle cx="515" cy="46" r="11" fill="#CDCDCD"/>
<circle cx="515" cy="11" r="11" fill="#CDCDCD"/>
<circle cx="551" cy="11" r="11" fill="#CDCDCD"/>
<circle cx="587" cy="11" r="11" fill="#CDCDCD"/>
<circle cx="587" cy="46" r="11" fill="#CDCDCD"/>
<circle cx="551" cy="46" r="11" fill="#CDCDCD"/>
<circle cx="551" cy="82" r="11" fill="#CDCDCD"/>
<circle cx="551" cy="118" r="11" fill="#CDCDCD"/>
<circle cx="515" cy="82" r="11" fill="#CDCDCD"/>
<circle cx="479" cy="82" r="11" fill="#CDCDCD"/>
<circle cx="479" cy="118" r="11" fill="#CDCDCD"/>
<circle cx="515" cy="118" r="11" fill="#CDCDCD"/>
<circle cx="515" cy="154" r="11" fill="#CDCDCD"/>
<circle cx="479" cy="154" r="11" fill="#CDCDCD"/>
<circle cx="479" cy="190" r="11" fill="#CDCDCD"/>
<circle cx="515" cy="190" r="11" fill="#CDCDCD"/>
<circle cx="551" cy="190" r="11" fill="#CDCDCD"/>
<circle cx="587" cy="82" r="11" fill="#CDCDCD"/>
<circle cx="623" cy="82" r="11" fill="#CDCDCD"/>
<circle cx="623" cy="11" r="11" fill="#CDCDCD"/>
<circle cx="659" cy="11" r="11" fill="#CDCDCD"/>
<circle cx="695" cy="11" r="11" fill="#CDCDCD"/>
<circle cx="695" cy="46" r="11" fill="#CDCDCD"/>
<circle cx="730" cy="46" r="11" fill="#CDCDCD"/>
<circle cx="730" cy="11" r="11" fill="#CDCDCD"/>
<circle cx="766" cy="11" r="11" fill="#CDCDCD"/>
<circle cx="766" cy="46" r="11" fill="#CDCDCD"/>
<circle cx="766" cy="82" r="11" fill="#CDCDCD"/>
<circle cx="766" cy="118" r="11" fill="#CDCDCD"/>
<circle cx="802" cy="118" r="11" fill="#CDCDCD"/>
<circle cx="803" cy="154" r="11" fill="#CDCDCD"/>
<circle cx="839" cy="154" r="11" fill="#CDCDCD"/>
<circle cx="839" cy="118" r="11" fill="#CDCDCD"/>
<circle cx="839" cy="82" r="11" fill="#CDCDCD"/>
<circle cx="875" cy="82" r="11" fill="#CDCDCD"/>
<circle cx="911" cy="82" r="11" fill="#CDCDCD"/>
<circle cx="875" cy="118" r="11" fill="#CDCDCD"/>
<circle cx="803" cy="82" r="11" fill="#CDCDCD"/>
<circle cx="803" cy="46" r="11" fill="#CDCDCD"/>
<circle cx="803" cy="11" r="11" fill="#CDCDCD"/>
<circle cx="839" cy="11" r="11" fill="#CDCDCD"/>
<circle cx="875" cy="11" r="11" fill="#CDCDCD"/>
<circle cx="911" cy="11" r="11" fill="#CDCDCD"/>
<circle cx="947" cy="11" r="11" fill="#CDCDCD"/>
<circle cx="982" cy="11" r="11" fill="#CDCDCD"/>
<circle cx="1019" cy="11" r="11" fill="#CDCDCD"/>
<circle cx="1163" cy="11" r="11" fill="#CDCDCD"/>
<circle cx="982" cy="118" r="11" fill="#CDCDCD"/>
<circle cx="1199" cy="11" r="11" fill="#CDCDCD"/>
<circle cx="1199" cy="118" r="11" fill="#CDCDCD"/>
<circle cx="1199" cy="154" r="11" fill="#CDCDCD"/>
<circle cx="1199" cy="190" r="11" fill="#CDCDCD"/>
<circle cx="1199" cy="225" r="11" fill="#CDCDCD"/>
<circle cx="1199" cy="261" r="11" fill="#CDCDCD"/>
<circle cx="1199" cy="299" r="11" fill="#CDCDCD"/>
<circle cx="1235" cy="299" r="11" fill="#CDCDCD"/>
<circle cx="1271" cy="299" r="11" fill="#CDCDCD"/>
<circle cx="1307" cy="299" r="11" fill="#CDCDCD"/>
<circle cx="1307" cy="334" r="11" fill="#CDCDCD"/>
<circle cx="1343" cy="334" r="11" fill="#CDCDCD"/>
<circle cx="1343" cy="299" r="11" fill="#CDCDCD"/>
<circle cx="1343" cy="261" r="11" fill="#CDCDCD"/>
<circle cx="1343" cy="225" r="11" fill="#CDCDCD"/>
<circle cx="1343" cy="190" r="11" fill="#CDCDCD"/>
<circle cx="1343" cy="154" r="11" fill="#CDCDCD"/>
<circle cx="1343" cy="118" r="11" fill="#CDCDCD"/>
<circle cx="1378" cy="118" r="11" fill="#CDCDCD"/>
<circle cx="1378" cy="82" r="11" fill="#CDCDCD"/>
<circle cx="1414" cy="82" r="11" fill="#CDCDCD"/>
<circle cx="1414" cy="46" r="11" fill="#CDCDCD"/>
<circle cx="1451" cy="46" r="11" fill="#CDCDCD"/>
<circle cx="1487" cy="46" r="11" fill="#CDCDCD"/>
<circle cx="1487" cy="82" r="11" fill="#CDCDCD"/>
<circle cx="1487" cy="118" r="11" fill="#CDCDCD"/>
<circle cx="1451" cy="118" r="11" fill="#CDCDCD"/>
<circle cx="1415" cy="118" r="11" fill="#CDCDCD"/>
<circle cx="1414" cy="154" r="11" fill="#CDCDCD"/>
<circle cx="1379" cy="154" r="11" fill="#CDCDCD"/>
<circle cx="1379" cy="190" r="11" fill="#CDCDCD"/>
<circle cx="1414" cy="190" r="11" fill="#CDCDCD"/>
<circle cx="1451" cy="154" r="11" fill="#CDCDCD"/>
<circle cx="1487" cy="154" r="11" fill="#CDCDCD"/>
<circle cx="1487" cy="190" r="11" fill="#CDCDCD"/>
<circle cx="1451" cy="190" r="11" fill="#CDCDCD"/>
<circle cx="1451" cy="225" r="11" fill="#CDCDCD"/>
<circle cx="1487" cy="225" r="11" fill="#CDCDCD"/>
<circle cx="1414" cy="226" r="11" fill="#CDCDCD"/>
<circle cx="1379" cy="225" r="11" fill="#CDCDCD"/>
<circle cx="1378" cy="261" r="11" fill="#CDCDCD"/>
<circle cx="1378" cy="299" r="11" fill="#CDCDCD"/>
<circle cx="1414" cy="262" r="11" fill="#CDCDCD"/>
<circle cx="1451" cy="261" r="11" fill="#CDCDCD"/>
<circle cx="1487" cy="261" r="11" fill="#CDCDCD"/>
<circle cx="1487" cy="299" r="11" fill="#CDCDCD"/>
<circle cx="1451" cy="299" r="11" fill="#CDCDCD"/>
<circle cx="1451" cy="334" r="11" fill="#CDCDCD"/>
<circle cx="1414" cy="334" r="11" fill="#CDCDCD"/>
<circle cx="1379" cy="334" r="11" fill="#CDCDCD"/>
<circle cx="1414" cy="298" r="11" fill="#CDCDCD"/>
<circle cx="1235" cy="261" r="11" fill="#CDCDCD"/>
<circle cx="1235" cy="225" r="11" fill="#CDCDCD"/>
<circle cx="1235" cy="190" r="11" fill="#CDCDCD"/>
<circle cx="1235" cy="154" r="11" fill="#CDCDCD"/>
<circle cx="1235" cy="118" r="11" fill="#CDCDCD"/>
<circle cx="1235" cy="82" r="11" fill="#CDCDCD"/>
<circle cx="1271" cy="82" r="11" fill="#CDCDCD"/>
<circle cx="1271" cy="118" r="11" fill="#CDCDCD"/>
<circle cx="1271" cy="154" r="11" fill="#CDCDCD"/>
<circle cx="1271" cy="190" r="11" fill="#CDCDCD"/>
<circle cx="1271" cy="225" r="11" fill="#CDCDCD"/>
<circle cx="1307" cy="225" r="11" fill="#CDCDCD"/>
<circle cx="1307" cy="190" r="11" fill="#CDCDCD"/>
<circle cx="1307" cy="154" r="11" fill="#CDCDCD"/>
<circle cx="1307" cy="118" r="11" fill="#CDCDCD"/>
<circle cx="1163" cy="82" r="11" fill="#CDCDCD"/>
<circle cx="1163" cy="118" r="11" fill="#CDCDCD"/>
<circle cx="1163" cy="154" r="11" fill="#CDCDCD"/>
<circle cx="1127" cy="154" r="11" fill="#CDCDCD"/>
<circle cx="1127" cy="190" r="11" fill="#CDCDCD"/>
<circle cx="1163" cy="190" r="11" fill="#CDCDCD"/>
<circle cx="1163" cy="225" r="11" fill="#CDCDCD"/>
<circle cx="1127" cy="225" r="11" fill="#CDCDCD"/>
<circle cx="1091" cy="225" r="11" fill="#CDCDCD"/>
<circle cx="1055" cy="225" r="11" fill="#CDCDCD"/>
<circle cx="1055" cy="190" r="11" fill="#CDCDCD"/>
<circle cx="1019" cy="190" r="11" fill="#CDCDCD"/>
<circle cx="1055" cy="261" r="11" fill="#CDCDCD"/>
<circle cx="1019" cy="261" r="11" fill="#CDCDCD"/>
<circle cx="1091" cy="261" r="11" fill="#CDCDCD"/>
<circle cx="1127" cy="261" r="11" fill="#CDCDCD"/>
<circle cx="1163" cy="261" r="11" fill="#CDCDCD"/>
<circle cx="1163" cy="299" r="11" fill="#CDCDCD"/>
<circle cx="1055" cy="299" r="11" fill="#CDCDCD"/>
<circle cx="1019" cy="299" r="11" fill="#CDCDCD"/>
<circle cx="1055" cy="334" r="11" fill="#CDCDCD"/>
<circle cx="1055" cy="370" r="11" fill="#CDCDCD"/>
<circle cx="1019" cy="370" r="11" fill="#CDCDCD"/>
<circle cx="1091" cy="370" r="11" fill="#CDCDCD"/>
<circle cx="1127" cy="370" r="11" fill="#CDCDCD"/>
<circle cx="1163" cy="370" r="11" fill="#CDCDCD"/>
<circle cx="1199" cy="370" r="11" fill="#CDCDCD"/>
<circle cx="1235" cy="370" r="11" fill="#CDCDCD"/>
<circle cx="1271" cy="370" r="11" fill="#CDCDCD"/>
<circle cx="1307" cy="370" r="11" fill="#CDCDCD"/>
<circle cx="1343" cy="370" r="11" fill="#CDCDCD"/>
<circle cx="1379" cy="370" r="11" fill="#CDCDCD"/>
<circle cx="1414" cy="370" r="11" fill="#CDCDCD"/>
<circle cx="1451" cy="370" r="11" fill="#CDCDCD"/>
<circle cx="1487" cy="334" r="11" fill="#CDCDCD"/>
<circle cx="1487" cy="370" r="11" fill="#CDCDCD"/>
<circle cx="1487" cy="406" r="11" fill="#CDCDCD"/>
<circle cx="1523" cy="82" r="11" fill="#CDCDCD"/>
<circle cx="1523" cy="118" r="11" fill="#CDCDCD"/>
<circle cx="1523" cy="154" r="11" fill="#CDCDCD"/>
<circle cx="1523" cy="190" r="11" fill="#CDCDCD"/>
<circle cx="1523" cy="225" r="11" fill="#CDCDCD"/>
<circle cx="1523" cy="261" r="11" fill="#CDCDCD"/>
<circle cx="1523" cy="299" r="11" fill="#CDCDCD"/>
<circle cx="1523" cy="334" r="11" fill="#CDCDCD"/>
<circle cx="1523" cy="370" r="11" fill="#CDCDCD"/>
<circle cx="1523" cy="406" r="11" fill="#CDCDCD"/>
<circle cx="1559" cy="82" r="11" fill="#CDCDCD"/>
<circle cx="1559" cy="118" r="11" fill="#CDCDCD"/>
<circle cx="1559" cy="154" r="11" fill="#CDCDCD"/>
<circle cx="1559" cy="190" r="11" fill="#CDCDCD"/>
<circle cx="1559" cy="225" r="11" fill="#CDCDCD"/>
<circle cx="1559" cy="261" r="11" fill="#CDCDCD"/>
<circle cx="1559" cy="299" r="11" fill="#CDCDCD"/>
<circle cx="1559" cy="334" r="11" fill="#CDCDCD"/>
<circle cx="1559" cy="370" r="11" fill="#CDCDCD"/>
<circle cx="1559" cy="406" r="11" fill="#CDCDCD"/>
<circle cx="1523" cy="442" r="11" fill="#CDCDCD"/>
<circle cx="1523" cy="478" r="11" fill="#CDCDCD"/>
<circle cx="1559" cy="442" r="11" fill="#CDCDCD"/>
<circle cx="1559" cy="478" r="11" fill="#CDCDCD"/>
<circle cx="1595" cy="82" r="11" fill="#CDCDCD"/>
<circle cx="1595" cy="118" r="11" fill="#CDCDCD"/>
<circle cx="1595" cy="154" r="11" fill="#CDCDCD"/>
<circle cx="1595" cy="190" r="11" fill="#CDCDCD"/>
<circle cx="1595" cy="225" r="11" fill="#CDCDCD"/>
<circle cx="1595" cy="261" r="11" fill="#CDCDCD"/>
<circle cx="1595" cy="299" r="11" fill="#CDCDCD"/>
<circle cx="1595" cy="334" r="11" fill="#CDCDCD"/>
<circle cx="1595" cy="370" r="11" fill="#CDCDCD"/>
<circle cx="1595" cy="406" r="11" fill="#CDCDCD"/>
<circle cx="1595" cy="442" r="11" fill="#CDCDCD"/>
<circle cx="1559" cy="514" r="11" fill="#CDCDCD"/>
<circle cx="1631" cy="82" r="11" fill="#CDCDCD"/>
<circle cx="1631" cy="118" r="11" fill="#CDCDCD"/>
<circle cx="1631" cy="154" r="11" fill="#CDCDCD"/>
<circle cx="1631" cy="190" r="11" fill="#CDCDCD"/>
<circle cx="1631" cy="225" r="11" fill="#CDCDCD"/>
<circle cx="1631" cy="261" r="11" fill="#CDCDCD"/>
<circle cx="1631" cy="299" r="11" fill="#CDCDCD"/>
<circle cx="1631" cy="334" r="11" fill="#CDCDCD"/>
<circle cx="1631" cy="370" r="11" fill="#CDCDCD"/>
<circle cx="1631" cy="406" r="11" fill="#CDCDCD"/>
<circle cx="1667" cy="82" r="11" fill="#CDCDCD"/>
<circle cx="1667" cy="118" r="11" fill="#CDCDCD"/>
<circle cx="1667" cy="154" r="11" fill="#CDCDCD"/>
<circle cx="1667" cy="190" r="11" fill="#CDCDCD"/>
<circle cx="1667" cy="225" r="11" fill="#CDCDCD"/>
<circle cx="1667" cy="261" r="11" fill="#CDCDCD"/>
<circle cx="1667" cy="299" r="11" fill="#CDCDCD"/>
<circle cx="1667" cy="334" r="11" fill="#CDCDCD"/>
<circle cx="1667" cy="370" r="11" fill="#CDCDCD"/>
<circle cx="1667" cy="406" r="11" fill="#CDCDCD"/>
<circle cx="1703" cy="82" r="11" fill="#CDCDCD"/>
<circle cx="1703" cy="118" r="11" fill="#CDCDCD"/>
<circle cx="1703" cy="154" r="11" fill="#CDCDCD"/>
<circle cx="1703" cy="190" r="11" fill="#CDCDCD"/>
<circle cx="1703" cy="225" r="11" fill="#CDCDCD"/>
<circle cx="1703" cy="261" r="11" fill="#CDCDCD"/>
<circle cx="1703" cy="299" r="11" fill="#CDCDCD"/>
<circle cx="1703" cy="334" r="11" fill="#CDCDCD"/>
<circle cx="1703" cy="370" r="11" fill="#CDCDCD"/>
<circle cx="1703" cy="406" r="11" fill="#CDCDCD"/>
<circle cx="1775" cy="694" r="11" fill="#CDCDCD"/>
<circle cx="1775" cy="730" r="11" fill="#CDCDCD"/>
<circle cx="1775" cy="766" r="11" fill="#CDCDCD"/>
<circle cx="1811" cy="694" r="11" fill="#CDCDCD"/>
<circle cx="1811" cy="730" r="11" fill="#CDCDCD"/>
<circle cx="1811" cy="766" r="11" fill="#CDCDCD"/>
<circle cx="1847" cy="694" r="11" fill="#CDCDCD"/>
<circle cx="1847" cy="730" r="11" fill="#CDCDCD"/>
<circle cx="1847" cy="766" r="11" fill="#CDCDCD"/>
<circle cx="1883" cy="694" r="11" fill="#CDCDCD"/>
<circle cx="1883" cy="730" r="11" fill="#CDCDCD"/>
<circle cx="1883" cy="766" r="11" fill="#CDCDCD"/>
<circle cx="1919" cy="694" r="11" fill="#CDCDCD"/>
<circle cx="1919" cy="730" r="11" fill="#CDCDCD"/>
<circle cx="1919" cy="766" r="11" fill="#CDCDCD"/>
<circle cx="1955" cy="694" r="11" fill="#CDCDCD"/>
<circle cx="1847" cy="658" r="11" fill="#CDCDCD"/>
<circle cx="1883" cy="658" r="11" fill="#CDCDCD"/>
<circle cx="1883" cy="622" r="11" fill="#CDCDCD"/>
<circle cx="1919" cy="586" r="11" fill="#CDCDCD"/>
<circle cx="1919" cy="550" r="11" fill="#CDCDCD"/>
<circle cx="1955" cy="586" r="11" fill="#CDCDCD"/>
<circle cx="1991" cy="586" r="11" fill="#CDCDCD"/>
<circle cx="1991" cy="622" r="11" fill="#CDCDCD"/>
<circle cx="1955" cy="622" r="11" fill="#CDCDCD"/>
<circle cx="1955" cy="802" r="11" fill="#CDCDCD"/>
<circle cx="1919" cy="802" r="11" fill="#CDCDCD"/>
<circle cx="2135" cy="802" r="11" fill="#CDCDCD"/>
<circle cx="2135" cy="766" r="11" fill="#CDCDCD"/>
<circle cx="2135" cy="838" r="11" fill="#CDCDCD"/>
<circle cx="2099" cy="838" r="11" fill="#CDCDCD"/>
<circle cx="2099" cy="873" r="11" fill="#CDCDCD"/>
<circle cx="1919" cy="658" r="11" fill="#CDCDCD"/>
<circle cx="1955" cy="658" r="11" fill="#CDCDCD"/>
<circle cx="1955" cy="730" r="11" fill="#CDCDCD"/>
<circle cx="1955" cy="766" r="11" fill="#CDCDCD"/>
<circle cx="1991" cy="694" r="11" fill="#CDCDCD"/>
<circle cx="1991" cy="730" r="11" fill="#CDCDCD"/>
<circle cx="1991" cy="766" r="11" fill="#CDCDCD"/>
<circle cx="1739" cy="82" r="11" fill="#CDCDCD"/>
<circle cx="1739" cy="118" r="11" fill="#CDCDCD"/>
<circle cx="1739" cy="154" r="11" fill="#CDCDCD"/>
<circle cx="1739" cy="190" r="11" fill="#CDCDCD"/>
<circle cx="1739" cy="225" r="11" fill="#CDCDCD"/>
<circle cx="1739" cy="261" r="11" fill="#CDCDCD"/>
<circle cx="1739" cy="299" r="11" fill="#CDCDCD"/>
<circle cx="1739" cy="334" r="11" fill="#CDCDCD"/>
<circle cx="1739" cy="370" r="11" fill="#CDCDCD"/>
<circle cx="1739" cy="406" r="11" fill="#CDCDCD"/>
<circle cx="1811" cy="82" r="11" fill="#CDCDCD"/>
<circle cx="1811" cy="118" r="11" fill="#CDCDCD"/>
<circle cx="1811" cy="154" r="11" fill="#CDCDCD"/>
<circle cx="1811" cy="190" r="11" fill="#CDCDCD"/>
<circle cx="1811" cy="225" r="11" fill="#CDCDCD"/>
<circle cx="1811" cy="261" r="11" fill="#CDCDCD"/>
<circle cx="1811" cy="299" r="11" fill="#CDCDCD"/>
<circle cx="1847" cy="299" r="11" fill="#CDCDCD"/>
<circle cx="1919" cy="299" r="11" fill="#CDCDCD"/>
<circle cx="1919" cy="334" r="11" fill="#CDCDCD"/>
<circle cx="1883" cy="334" r="11" fill="#CDCDCD"/>
<circle cx="1847" cy="478" r="11" fill="#CDCDCD"/>
<circle cx="1811" cy="478" r="11" fill="#CDCDCD"/>
<circle cx="1847" cy="514" r="11" fill="#CDCDCD"/>
<circle cx="1811" cy="514" r="11" fill="#CDCDCD"/>
<circle cx="1739" cy="442" r="11" fill="#CDCDCD"/>
<circle cx="1739" cy="478" r="11" fill="#CDCDCD"/>
<circle cx="1775" cy="514" r="11" fill="#CDCDCD"/>
<circle cx="1703" cy="442" r="11" fill="#CDCDCD"/>
<circle cx="1667" cy="442" r="11" fill="#CDCDCD"/>
<circle cx="1667" cy="478" r="11" fill="#CDCDCD"/>
<circle cx="1667" cy="514" r="11" fill="#CDCDCD"/>
<circle cx="1703" cy="478" r="11" fill="#CDCDCD"/>
<circle cx="1811" cy="550" r="11" fill="#CDCDCD"/>
<circle cx="1811" cy="586" r="11" fill="#CDCDCD"/>
<circle cx="1775" cy="550" r="11" fill="#CDCDCD"/>
<circle cx="1739" cy="550" r="11" fill="#CDCDCD"/>
<circle cx="1739" cy="586" r="11" fill="#CDCDCD"/>
<circle cx="1775" cy="586" r="11" fill="#CDCDCD"/>
<circle cx="1703" cy="514" r="11" fill="#CDCDCD"/>
<circle cx="1703" cy="550" r="11" fill="#CDCDCD"/>
<circle cx="1667" cy="550" r="11" fill="#CDCDCD"/>
<circle cx="1811" cy="334" r="11" fill="#CDCDCD"/>
<circle cx="1811" cy="370" r="11" fill="#CDCDCD"/>
<circle cx="1775" cy="82" r="11" fill="#CDCDCD"/>
<circle cx="1631" cy="47" r="11" fill="#CDCDCD"/>
<circle cx="1667" cy="47" r="11" fill="#CDCDCD"/>
<circle cx="1703" cy="47" r="11" fill="#CDCDCD"/>
<circle cx="1739" cy="47" r="11" fill="#CDCDCD"/>
<circle cx="1775" cy="47" r="11" fill="#CDCDCD"/>
<circle cx="1775" cy="118" r="11" fill="#CDCDCD"/>
<circle cx="1775" cy="154" r="11" fill="#CDCDCD"/>
<circle cx="1775" cy="190" r="11" fill="#CDCDCD"/>
<circle cx="1775" cy="225" r="11" fill="#CDCDCD"/>
<circle cx="1775" cy="261" r="11" fill="#CDCDCD"/>
<circle cx="1883" cy="82" r="11" fill="#CDCDCD"/>
<circle cx="1883" cy="118" r="11" fill="#CDCDCD"/>
<circle cx="1883" cy="154" r="11" fill="#CDCDCD"/>
<circle cx="1883" cy="190" r="11" fill="#CDCDCD"/>
<circle cx="1883" cy="225" r="11" fill="#CDCDCD"/>
<circle cx="1919" cy="82" r="11" fill="#CDCDCD"/>
<circle cx="1919" cy="118" r="11" fill="#CDCDCD"/>
<circle cx="1919" cy="154" r="11" fill="#CDCDCD"/>
<circle cx="1955" cy="82" r="11" fill="#CDCDCD"/>
<circle cx="1955" cy="118" r="11" fill="#CDCDCD"/>
<circle cx="1955" cy="154" r="11" fill="#CDCDCD"/>
<circle cx="1991" cy="82" r="11" fill="#CDCDCD"/>
<circle cx="1919" cy="47" r="11" fill="#CDCDCD"/>
<circle cx="1955" cy="47" r="11" fill="#CDCDCD"/>
<circle cx="1991" cy="47" r="11" fill="#CDCDCD"/>
<circle cx="1991" cy="118" r="11" fill="#CDCDCD"/>
<circle cx="1991" cy="154" r="11" fill="#CDCDCD"/>
<circle cx="2027" cy="82" r="11" fill="#CDCDCD"/>
<circle cx="2027" cy="118" r="11" fill="#CDCDCD"/>
<circle cx="2027" cy="154" r="11" fill="#CDCDCD"/>
<circle cx="2063" cy="82" r="11" fill="#CDCDCD"/>
<circle cx="2063" cy="118" r="11" fill="#CDCDCD"/>
<circle cx="2063" cy="154" r="11" fill="#CDCDCD"/>
<circle cx="2099" cy="82" r="11" fill="#CDCDCD"/>
<circle cx="2099" cy="118" r="11" fill="#CDCDCD"/>
<circle cx="2099" cy="154" r="11" fill="#CDCDCD"/>
<circle cx="2135" cy="82" r="11" fill="#CDCDCD"/>
<circle cx="2135" cy="118" r="11" fill="#CDCDCD"/>
<circle cx="2135" cy="154" r="11" fill="#CDCDCD"/>
<circle cx="1919" cy="190" r="11" fill="#CDCDCD"/>
<circle cx="1919" cy="225" r="11" fill="#CDCDCD"/>
<circle cx="1955" cy="225" r="11" fill="#CDCDCD"/>
<circle cx="2027" cy="225" r="11" fill="#CDCDCD"/>
<circle cx="2027" cy="190" r="11" fill="#CDCDCD"/>
<circle cx="2063" cy="190" r="11" fill="#CDCDCD"/>
<circle cx="1883" cy="261" r="11" fill="#CDCDCD"/>
<circle cx="1847" cy="82" r="11" fill="#CDCDCD"/>
<circle cx="1847" cy="118" r="11" fill="#CDCDCD"/>
<circle cx="1847" cy="154" r="11" fill="#CDCDCD"/>
<circle cx="1847" cy="190" r="11" fill="#CDCDCD"/>
<circle cx="1847" cy="225" r="11" fill="#CDCDCD"/>
<circle cx="1847" cy="261" r="11" fill="#CDCDCD"/>
<circle cx="1775" cy="299" r="11" fill="#CDCDCD"/>
<circle cx="1775" cy="334" r="11" fill="#CDCDCD"/>
<circle cx="1775" cy="370" r="11" fill="#CDCDCD"/>
<circle cx="1775" cy="406" r="11" fill="#CDCDCD"/>
<circle cx="1414" cy="406" r="11" fill="#CDCDCD"/>
<circle cx="1414" cy="442" r="11" fill="#CDCDCD"/>
<circle cx="1379" cy="406" r="11" fill="#CDCDCD"/>
<circle cx="1343" cy="406" r="11" fill="#CDCDCD"/>
<circle cx="1307" cy="406" r="11" fill="#CDCDCD"/>
<circle cx="1271" cy="406" r="11" fill="#CDCDCD"/>
<circle cx="1235" cy="406" r="11" fill="#CDCDCD"/>
<circle cx="1199" cy="406" r="11" fill="#CDCDCD"/>
<circle cx="1163" cy="406" r="11" fill="#CDCDCD"/>
<circle cx="1127" cy="406" r="11" fill="#CDCDCD"/>
<circle cx="1091" cy="406" r="11" fill="#CDCDCD"/>
<circle cx="1055" cy="406" r="11" fill="#CDCDCD"/>
<circle cx="1019" cy="406" r="11" fill="#CDCDCD"/>
<circle cx="983" cy="406" r="11" fill="#CDCDCD"/>
<circle cx="983" cy="442" r="11" fill="#CDCDCD"/>
<circle cx="983" cy="478" r="11" fill="#CDCDCD"/>
<circle cx="1019" cy="478" r="11" fill="#CDCDCD"/>
<circle cx="1019" cy="442" r="11" fill="#CDCDCD"/>
<circle cx="1055" cy="442" r="11" fill="#CDCDCD"/>
<circle cx="1091" cy="442" r="11" fill="#CDCDCD"/>
<circle cx="1127" cy="442" r="11" fill="#CDCDCD"/>
<circle cx="1163" cy="442" r="11" fill="#CDCDCD"/>
<circle cx="1199" cy="442" r="11" fill="#CDCDCD"/>
<circle cx="1235" cy="442" r="11" fill="#CDCDCD"/>
<circle cx="1271" cy="442" r="11" fill="#CDCDCD"/>
<circle cx="1307" cy="442" r="11" fill="#CDCDCD"/>
<circle cx="1343" cy="442" r="11" fill="#CDCDCD"/>
<circle cx="1378" cy="442" r="11" fill="#CDCDCD"/>
<circle cx="1378" cy="478" r="11" fill="#CDCDCD"/>
<circle cx="1343" cy="478" r="11" fill="#CDCDCD"/>
<circle cx="1307" cy="478" r="11" fill="#CDCDCD"/>
<circle cx="1271" cy="478" r="11" fill="#CDCDCD"/>
<circle cx="1235" cy="478" r="11" fill="#CDCDCD"/>
<circle cx="1199" cy="478" r="11" fill="#CDCDCD"/>
<circle cx="1163" cy="478" r="11" fill="#CDCDCD"/>
<circle cx="1127" cy="478" r="11" fill="#CDCDCD"/>
<circle cx="1091" cy="478" r="11" fill="#CDCDCD"/>
<circle cx="1055" cy="478" r="11" fill="#CDCDCD"/>
<circle cx="1019" cy="514" r="11" fill="#CDCDCD"/>
<circle cx="1378" cy="514" r="11" fill="#CDCDCD"/>
<circle cx="1343" cy="514" r="11" fill="#CDCDCD"/>
<circle cx="1307" cy="514" r="11" fill="#CDCDCD"/>
<circle cx="1271" cy="514" r="11" fill="#CDCDCD"/>
<circle cx="1235" cy="514" r="11" fill="#CDCDCD"/>
<circle cx="1199" cy="514" r="11" fill="#CDCDCD"/>
<circle cx="1163" cy="514" r="11" fill="#CDCDCD"/>
<circle cx="1378" cy="658" r="11" fill="#CDCDCD"/>
<circle cx="1378" cy="622" r="11" fill="#CDCDCD"/>
<circle cx="1343" cy="658" r="11" fill="#CDCDCD"/>
<circle cx="1343" cy="694" r="11" fill="#CDCDCD"/>
<circle cx="1307" cy="658" r="11" fill="#CDCDCD"/>
<circle cx="1271" cy="658" r="11" fill="#CDCDCD"/>
<circle cx="1235" cy="658" r="11" fill="#CDCDCD"/>
<circle cx="1199" cy="658" r="11" fill="#CDCDCD"/>
<circle cx="1163" cy="658" r="11" fill="#CDCDCD"/>
<circle cx="1271" cy="694" r="11" fill="#CDCDCD"/>
<circle cx="1235" cy="694" r="11" fill="#CDCDCD"/>
<circle cx="1199" cy="694" r="11" fill="#CDCDCD"/>
<circle cx="1163" cy="694" r="11" fill="#CDCDCD"/>
<circle cx="1271" cy="730" r="11" fill="#CDCDCD"/>
<circle cx="1235" cy="730" r="11" fill="#CDCDCD"/>
<circle cx="1199" cy="730" r="11" fill="#CDCDCD"/>
<circle cx="1235" cy="766" r="11" fill="#CDCDCD"/>
<circle cx="1199" cy="766" r="11" fill="#CDCDCD"/>
<circle cx="1163" cy="730" r="11" fill="#CDCDCD"/>
<circle cx="1127" cy="514" r="11" fill="#CDCDCD"/>
<circle cx="1343" cy="550" r="11" fill="#CDCDCD"/>
<circle cx="1307" cy="550" r="11" fill="#CDCDCD"/>
<circle cx="1271" cy="550" r="11" fill="#CDCDCD"/>
<circle cx="1235" cy="550" r="11" fill="#CDCDCD"/>
<circle cx="1199" cy="550" r="11" fill="#CDCDCD"/>
<circle cx="1163" cy="550" r="11" fill="#CDCDCD"/>
<circle cx="1127" cy="550" r="11" fill="#CDCDCD"/>
<circle cx="1307" cy="586" r="11" fill="#CDCDCD"/>
<circle cx="1271" cy="586" r="11" fill="#CDCDCD"/>
<circle cx="1235" cy="586" r="11" fill="#CDCDCD"/>
<circle cx="1199" cy="586" r="11" fill="#CDCDCD"/>
<circle cx="1163" cy="586" r="11" fill="#CDCDCD"/>
<circle cx="1307" cy="622" r="11" fill="#CDCDCD"/>
<circle cx="1271" cy="622" r="11" fill="#CDCDCD"/>
<circle cx="1235" cy="622" r="11" fill="#CDCDCD"/>
<circle cx="1199" cy="622" r="11" fill="#CDCDCD"/>
<circle cx="1163" cy="622" r="11" fill="#CDCDCD"/>
<circle cx="1127" cy="586" r="11" fill="#CDCDCD"/>
<circle cx="1091" cy="514" r="11" fill="#CDCDCD"/>
<circle cx="1055" cy="514" r="11" fill="#CDCDCD"/>
<circle cx="1091" cy="334" r="11" fill="#CDCDCD"/>
<circle cx="1127" cy="334" r="11" fill="#CDCDCD"/>
<circle cx="1127" cy="334" r="11" fill="#CDCDCD"/>
<circle cx="1199" cy="82" r="11" fill="#CDCDCD"/>
<circle cx="947" cy="118" r="11" fill="#CDCDCD"/>
<circle cx="947" cy="82" r="11" fill="#CDCDCD"/>
<circle cx="947" cy="46" r="11" fill="#CDCDCD"/>
<circle cx="911" cy="46" r="11" fill="#CDCDCD"/>
<circle cx="875" cy="46" r="11" fill="#CDCDCD"/>
<circle cx="839" cy="46" r="11" fill="#CDCDCD"/>
<circle cx="659" cy="46" r="11" fill="#CDCDCD"/>
<circle cx="659" cy="82" r="11" fill="#CDCDCD"/>
<circle cx="659" cy="118" r="11" fill="#CDCDCD"/>
<circle cx="695" cy="118" r="11" fill="#CDCDCD"/>
<circle cx="695" cy="154" r="11" fill="#CDCDCD"/>
<circle cx="730" cy="190" r="11" fill="#CDCDCD"/>
<circle cx="695" cy="190" r="11" fill="#CDCDCD"/>
<circle cx="659" cy="190" r="11" fill="#CDCDCD"/>
<circle cx="659" cy="154" r="11" fill="#CDCDCD"/>
<circle cx="623" cy="154" r="11" fill="#CDCDCD"/>
<circle cx="623" cy="190" r="11" fill="#CDCDCD"/>
<circle cx="155" cy="82" r="11" fill="#CDCDCD"/>
<circle cx="119" cy="82" r="11" fill="#CDCDCD"/>
<circle cx="227" cy="118" r="11" fill="#CDCDCD"/>
<circle cx="191" cy="118" r="11" fill="#CDCDCD"/>
<circle cx="155" cy="118" r="11" fill="#CDCDCD"/>
<circle cx="83" cy="82" r="11" fill="#CDCDCD"/>
<circle cx="695" cy="766" r="11" fill="#CDCDCD"/>
<circle cx="659" cy="766" r="11" fill="#CDCDCD"/>
<circle cx="659" cy="802" r="11" fill="#CDCDCD"/>
<circle cx="623" cy="838" r="11" fill="#CDCDCD"/>
<circle cx="623" cy="874" r="11" fill="#CDCDCD"/>
<circle cx="659" cy="874" r="11" fill="#CDCDCD"/>
</svg>
